<?xml version="1.0" encoding="utf-8"?>
<!-- Generator: Adobe Illustrator 16.0.0, SVG Export Plug-In . SVG Version: 6.00 Build 0)  -->
<!DOCTYPE svg PUBLIC "-//W3C//DTD SVG 1.1//EN" "http://www.w3.org/Graphics/SVG/1.1/DTD/svg11.dtd">
<svg version="1.1" id="Layer_1" xmlns="http://www.w3.org/2000/svg" xmlns:xlink="http://www.w3.org/1999/xlink" x="0px" y="0px"
	 width="1800px" height="300px" viewBox="0 0 1800 300" enable-background="new 0 0 1800 300" xml:space="preserve">
<path fill="#FCFAF0" d="M1397.778,76.615c-3.021-5.193-7.76-8.548-12.075-8.548c-1.297,0-2.488,0.31-3.542,0.921
	c-0.548,0.318-1.044,0.736-1.527,1.292l-15.773,22.134l4.815,8.289l25.115-6.064c0.72-0.146,1.338-0.371,1.876-0.684
	C1401.278,91.271,1401.777,83.493,1397.778,76.615z"/>
<polygon fill="#FFEFCC" points="1592.946,52.697 1592.474,52.221 1587.058,57.637 1585.675,59 1592.389,59 "/>
<polygon fill="#FFEFCC" points="1554.487,89.741 1549.223,95.131 1549.221,95.159 1549.097,95.182 1556.216,94.555 1555.55,101.745 
	1555.545,101.758 1562.724,101.126 1562.087,108.313 1562.561,108.789 1567.975,103.372 1576,95.461 1576,68.537 "/>
<polygon opacity="0.8" fill="#FFA28C" enable-background="new    " points="1709.23,59 1592.389,59 1592.311,59.883 
	1599.487,59.251 1599.48,59.265 1598.814,66.455 1605.931,65.829 1605.801,65.852 1605.798,65.879 1600.54,71.27 1576,95.461 
	1576,206 1627,206 1627,257 1730,257 1730,90.602 1710.064,60.236 "/>
<polygon opacity="0.8" fill="#FFA28C" enable-background="new    " points="1576,59 1576,68.537 1585.675,59 "/>
<polygon opacity="0.6" fill="#FFDE95" enable-background="new    " points="1605.798,65.879 1605.801,65.852 1605.931,65.829 
	1598.814,66.455 1599.48,59.265 1599.487,59.251 1592.311,59.883 1592.389,59 1585.675,59 1576,68.537 1576,95.461 1600.54,71.27 
	"/>
<polygon fill="#FFCF9C" points="1605.798,65.879 1605.801,65.852 1605.931,65.829 1598.814,66.455 1599.48,59.265 1599.487,59.251 
	1592.311,59.883 1592.389,59 1585.675,59 1576,68.537 1576,95.461 1600.54,71.27 "/>
<polygon fill="#FFEFCC" points="1746.482,80.768 1726.017,49.598 1721.726,43.411 1721.699,43.402 1721.702,43.27 1720.96,50.375 
	1714.03,48.35 1714.017,48.342 1713.27,55.508 1706.337,53.513 1705.78,53.888 1709.23,59 1730,59 1730,90.602 1730.531,91.411 
	1734.818,97.606 1734.847,97.614 1734.845,97.739 1735.587,90.631 1742.518,92.655 1742.528,92.663 1743.276,85.496 1750.211,87.49 
	1750.768,87.117 "/>
<polygon opacity="0.8" fill="#FFA28C" enable-background="new    " points="1709.23,59 1710.064,60.236 1730,90.602 1730,59 "/>
<polygon fill="#FFCF9C" points="1709.23,59 1710.064,60.236 1730,90.602 1730,59 "/>
<rect x="42" y="67" fill="#FFDE95" width="199" height="131"/>
<path fill="#7F7371" d="M238.375,54H43.625C36.1,54,30,60.1,30,67.625v130.75C30,205.9,36.1,212,43.625,212H116v14H89v15h105v-15
	h-25v-14h69.375C245.9,212,252,205.9,252,198.375V67.625C252,60.1,245.9,54,238.375,54z"/>
<rect x="42" y="67" fill="#FFDE95" width="199" height="131"/>
<rect x="42" y="67" fill="#FFA28C" width="199" height="14"/>
<polygon fill="#FFFFFF" points="170.09,143.167 127,101.783 127,162.537 142.366,148.585 153.288,174.131 161.852,170.453 
	151.053,145.203 "/>
<path fill="#7F7371" d="M271,238.705c0,3.477-2.818,6.295-6.295,6.295h-50.41c-3.477,0-6.295-2.818-6.295-6.295v-90.41
	c0-3.477,2.818-6.295,6.295-6.295h50.41c3.477,0,6.295,2.818,6.295,6.295V238.705z"/>
<rect x="218" y="155" fill="#FFDE95" width="44" height="66"/>
<rect x="218" y="155" fill="#FFA28C" width="44" height="11"/>
<circle fill="#FCF4E2" stroke="#FCF4E2" stroke-miterlimit="10" cx="240.335" cy="234.203" r="5.674"/>
<polygon fill="#FFA28C" points="466.584,231.77 434.291,231.77 432.62,220.145 469.09,220.145 "/>
<rect x="335.146" y="88.703" fill="#FFA28C" width="231.218" height="139.509"/>
<path fill="#FFDE95" d="M557.006,219.168c-25.474,0-51.094,0.854-76.541,0.207c-11.633-0.294-20.292-0.451-30.029,6.582
	c-0.356,0.253-7.546-4.775-8.521-5.197c-6.497-2.785-37.771-1.695-45.425-1.607c-14.418,0.162-28.849,0.023-43.268,0
	c-3.118-0.008-6.236,0.019-9.354,0.019V88.703h213.14L557.006,219.168L557.006,219.168z"/>
<path fill="#FCF4E2" d="M492.041,66.971c-3.398-1.246-18.263-1.076-18.263-1.076c-13.397,3.161-23.346,14.734-23.346,28.57
	c0-13.836-9.942-25.409-23.343-28.57c0,0-14.865-0.17-18.263,1.076l-64.964,8.971v133.276c0,0,59.787-12.353,77.501-12.353
	c7.645,0,16.795-2.484,28.524,9.25h1.082c11.732-11.734,20.886-9.25,28.527-9.25c17.715,0,77.502,12.353,77.502,12.353V75.941
	L492.041,66.971z"/>
<path fill="#FFDE95" d="M444.882,172c-11.729-12-20.759-9.327-28.403-9.327c-9.935,0-33.479,3.888-51.479,7.269v8.688
	c18-3.438,41.544-7.569,51.479-7.569c7.646,0,16.675-2.06,28.403,8.94H445v-8L444.882,172L444.882,172z"/>
<path fill="#FFDE95" d="M416.479,139.478c-9.935,0-33.479,3.692-51.479,7.073v10.023c18-3.381,41.544-7.085,51.479-7.085
	c7.646,0,16.675-2.489,28.403,9.511H445v-10h-0.118C433.15,137,424.123,139.478,416.479,139.478z"/>
<path fill="#FFDE95" d="M488.697,97.338c-2.885-1.057-15.459-0.912-15.459-0.912c-3.426,0.809-7.238,2.268-9.238,4.229v56.342
	c2-1.953,5.721-3.407,9.137-4.213c0,0,12.769-0.146,15.65,0.913L515,157.303v-56.357L488.697,97.338z"/>
<g>
	<path fill="#FFDE95" d="M488.027,133.334l7.438-7.57L515,145.418v-44.473l-26.303-3.607c-2.885-1.057-15.459-0.912-15.459-0.912
		c-3.426,0.809-7.238,2.268-9.238,4.229v27.589l9.471-9.494L488.027,133.334z"/>
	<path fill="#FFDE95" d="M473.137,152.784c0,0,12.769-0.146,15.65,0.913L515,157.303v-11.885l-19.534-19.654l-7.438,7.57
		L473.47,118.75l-9.47,9.494v28.753C466,155.044,469.721,153.59,473.137,152.784z"/>
	<path opacity="0.7" fill="#3C3533" enable-background="new    " d="M473.137,152.784c0,0,12.769-0.146,15.65,0.913L515,157.303
		v-11.885l-19.534-19.654l-7.438,7.57L473.47,118.75l-9.47,9.494v28.753C466,155.044,469.721,153.59,473.137,152.784z"/>
	<circle fill="#B0996E" cx="502.793" cy="114.793" r="6.126"/>
</g>
<path opacity="0.7" fill="#3C3533" enable-background="new    " d="M369,132.792c0.916-0.048,1.933-0.101,3-0.156V104.5l4-0.188V116
	v16.428c1.038-0.054,2.055-0.104,3-0.155v-16.647l5-0.574c0,0,0.223,0.006,0.26,0.006c3.822,0,6.922-3.205,6.922-7.028
	c0-3.823-3.1-7.028-6.922-7.028c-0.037,0-19.26,1-19.26,1v3l4.062-0.312L369,132.792z"/>
<path fill="#FFDE95" d="M444.882,128c-11.729-12-20.759-9.301-28.403-9.301c-4.388,0-11.432,0.764-19.479,1.908v10.017
	c8.047-1.146,15.091-1.913,19.479-1.913c7.646,0,16.675-2.711,28.403,9.289H445v-10H444.882z"/>
<path fill="#FFDE95" d="M444.882,107c-11.729-12-20.759-9.301-28.403-9.301c-4.388,0-11.432,0.764-19.479,1.908v10.017
	c8.047-1.146,15.091-1.913,19.479-1.913c7.646,0,16.675-2.711,28.403,9.289H445v-10H444.882z"/>
<rect x="656" y="51" opacity="0.7" fill="#3C3533" enable-background="new    " width="139" height="155"/>
<rect x="656" y="45" fill="#FFDE95" width="139" height="152"/>
<rect x="656" y="44" fill="#FCF4E2" width="139" height="145"/>
<g>
	<path fill="#8A8785" d="M667,61.52c0,1.975-1.732,3.48-3.521,3.48H648.24c-1.789,0-3.24-1.506-3.24-3.48v-0.338
		c0-1.975,1.451-3.182,3.24-3.182h15.235c1.789,0,3.521,1.207,3.521,3.182L667,61.52L667,61.52z"/>
	<path fill="#8A8785" d="M667,84.736c0,1.975-1.732,3.264-3.521,3.264H648.24c-1.789,0-3.24-1.289-3.24-3.264v-0.338
		c0-1.975,1.451-3.398,3.24-3.398h15.235c1.789,0,3.521,1.424,3.521,3.398L667,84.736L667,84.736z"/>
	<path fill="#8A8785" d="M667,107.203c0,1.975-1.732,3.797-3.521,3.797H648.24c-1.789,0-3.24-1.822-3.24-3.797v-0.338
		c0-1.975,1.451-3.865,3.24-3.865h15.235c1.789,0,3.521,1.891,3.521,3.865L667,107.203L667,107.203z"/>
	<path fill="#8A8785" d="M667,128.923c0,1.975-1.732,3.077-3.521,3.077H648.24c-1.789,0-3.24-1.103-3.24-3.077v-0.34
		c0-1.975,1.451-3.583,3.24-3.583h15.235c1.789,0,3.521,1.608,3.521,3.583L667,128.923L667,128.923z"/>
	<path fill="#8A8785" d="M667,151.389c0,1.979-1.732,3.611-3.521,3.611H648.24c-1.789,0-3.24-1.636-3.24-3.611v-0.338
		c0-1.975,1.451-4.051,3.24-4.051h15.235c1.789,0,3.521,2.076,3.521,4.051L667,151.389L667,151.389z"/>
	<path fill="#8A8785" d="M667,173.857c0,1.975-1.732,3.143-3.521,3.143H648.24c-1.789,0-3.24-1.168-3.24-3.143v-0.338
		c0-1.978,1.451-3.521,3.24-3.521h15.235c1.789,0,3.521,1.545,3.521,3.521L667,173.857L667,173.857z"/>
</g>
<rect x="786.942" y="132.955" transform="matrix(-0.7071 -0.7071 0.7071 -0.7071 1246.0475 889.1202)" fill="#FFA28C" width="40.44" height="107.094"/>
<rect x="814.135" y="144.276" transform="matrix(-0.7072 -0.707 0.707 -0.7072 1257.4434 916.391)" fill="#FF8D76" width="8.669" height="107.106"/>
<path fill="#FFFFFF" d="M1698.045,176.161v-0.002l-2.826,0.002l-0.127,1.215c-0.255,1.537-0.922,4.339-2.537,5.832
	c-0.434,0.432-1.093,0.712-1.914,0.855c-2.627-0.558-3.958-3.257-3.958-8.052V133.79c0-18.166-14.646-29.45-38.22-29.45
	c-0.325,0-0.66,0.008-1,0.02c-0.443-0.008-0.884-0.02-1.333-0.02c-8.89,0-23.807,4.49-28.476,16.849
	c-0.836,2.135-0.952,3.661-0.952,4.99v0.252c0,7.92,5.146,15.937,14.979,15.937c0.397,0,0.788-0.029,1.178-0.06
	c0.382,0.026,0.759,0.06,1.155,0.06c8.215,0,14.897-6.646,14.897-14.816s-6.629-14.816-14.775-14.816
	c-0.402,0-0.805,0.02-1.207,0.057c-0.373-0.028-0.746-0.057-1.126-0.057c-0.443,0-0.888,0.029-1.332,0.074
	c3.814-2.773,8.922-4.928,15.081-5.197c7.746,0.3,11.085,4.035,11.085,12.344v16.089c-2.075,2.994-4.897,6.459-8.522,7.366
	c-2.04,0.583-3.294,0.651-5.031,0.745c-1.888,0.102-4.238,0.228-8.438,1.067c-10.76,2.087-21.616,10.34-21.616,24.07
	c0,12.88,9.168,21.533,22.812,21.533c0.414,0,0.804-0.032,1.209-0.045c0.375,0.014,0.741,0.045,1.124,0.045
	c7.778,0,13.881-2.26,18.138-6.716c1.444-1.511,2.506-3.113,3.292-4.653c1.316,2.131,3.076,4.089,5.196,5.735
	c4.684,3.634,10.87,5.634,17.424,5.634c0.416,0,0.819-0.021,1.221-0.042c0.371,0.013,0.738,0.042,1.112,0.042
	c8.471,0,14.009-4.625,15.604-13.065l0.217-1.603L1698.045,176.161z M1643.487,174.57v-14.233c0-6.193,2.647-10.657,8.106-13.653
	c1.935-1.104,3.466-2.219,5.045-3.729v28.575c0.001,7.062-5.748,12.89-10.157,13.826
	C1644.218,184.718,1643.487,181.836,1643.487,174.57z"/>
<path opacity="0.75" fill="#3C3533" enable-background="new    " d="M1700.117,177.343l-0.13,1.189
	c-0.251,1.529-0.914,4.316-2.537,5.816c-0.629,0.629-1.72,0.962-3.151,0.962c-3.34,0-5.031-2.749-5.031-8.172v-42.221
	c0-18.166-14.65-29.45-38.229-29.45c-8.886,0-23.802,4.49-28.471,16.849c-0.833,2.125-0.947,3.655-0.947,4.99v0.253
	c0,7.919,5.144,15.937,14.973,15.937c8.211,0,14.893-6.646,14.893-14.815c0-8.17-6.63-14.817-14.778-14.817
	c-1.565,0-3.141,0.285-4.652,0.823c4.151-3.329,10.072-5.976,17.378-5.976c8.499,0,12.125,3.7,12.125,12.372v16.089
	c-2.076,2.993-4.9,6.457-8.533,7.365c-2.037,0.583-3.292,0.651-5.048,0.746c-1.89,0.102-4.24,0.229-8.431,1.069
	c-10.76,2.085-21.617,10.337-21.617,24.068c0,12.88,9.167,21.533,22.812,21.533c7.777,0,13.88-2.26,18.138-6.715
	c2.228-2.332,3.556-4.888,4.346-7.082c1.333,3.072,3.571,5.909,6.476,8.164c4.684,3.633,10.869,5.633,17.424,5.633
	c8.473,0,14.011-4.614,15.602-13.035l0.221-1.576H1700.117L1700.117,177.343z M1650.212,186.63c-3.175,0-4.143-2.553-4.143-10.932
	v-14.233c0-6.191,2.647-10.656,8.108-13.653c2.853-1.627,4.826-3.258,7.378-6.191v31.041
	C1661.556,180.37,1654.691,186.63,1650.212,186.63z"/>
<polygon fill="#FF8D76" points="1627,257.111 1627,206 1575.539,206 "/>
<rect x="687" y="66" fill="#FFDE95" width="84" height="94"/>
<polygon opacity="0.7" fill="#3C3533" enable-background="new    " points="738.718,107.857 726.475,120.398 726.454,120.379 
	726.435,120.398 702.514,96.247 687,111.967 687,159.604 687,160 769.129,160 771,160 771,140.419 "/>
<circle opacity="0.4" fill="#3C3533" enable-background="new    " cx="749.846" cy="87.87" r="9.512"/>
<path fill="#FF8D76" d="M1442.891,175.688c-1.639-2.334-4.885-3.351-7.895-2.44c-4.841,1.456-9.91,10.323-11.796,13.923
	c-1.886-3.6-6.954-12.467-11.795-13.923c-3.018-0.908-6.261,0.106-7.896,2.44c-1.304,1.857-1.521,4.265-0.615,6.771
	c1.188,3.278,4.926,5.666,11.104,7.09c3.094,0.713,5.995,0.996,7.478,1.104l-0.072,0.15l1.798-0.064l1.798,0.064l-0.074-0.15
	c1.481-0.106,4.383-0.393,7.479-1.104c6.182-1.424,9.918-3.812,11.104-7.089C1444.413,179.95,1444.194,177.546,1442.891,175.688z
	 M1405.717,181.438c-0.562-1.562-0.476-2.989,0.251-4.023c0.675-0.96,1.816-1.512,3.138-1.512c0.477,0,0.959,0.072,1.438,0.219
	c2.875,0.863,6.876,6.723,9.442,11.396C1414.992,186.979,1407.126,185.33,1405.717,181.438z M1440.686,181.438
	c-1.407,3.896-9.274,5.541-14.27,6.076c2.564-4.672,6.564-10.527,9.444-11.396c0.479-0.146,0.962-0.218,1.437-0.218
	c1.32,0,2.463,0.551,3.137,1.511C1441.161,178.445,1441.25,179.875,1440.686,181.438z"/>
<path fill="#FCF4E2" d="M1400.288,77.629c-0.729,0-1.469,0.138-2.289,0.43l-27.841,12.898v10.961l27.841,8.466
	c0.815,0.292,1.557,0.429,2.289,0.429c5.987,0,10.858-7.442,10.858-16.589C1411.146,85.073,1406.275,77.629,1400.288,77.629z"/>
<path fill="#FFFFFF" d="M1369.052,98.404c0,1.287,13.634,2.323,15.604,2.323c1.964,0,3.56-1.036,3.56-2.323
	c0-1.278-1.596-2.316-3.56-2.316C1382.686,96.088,1369.052,97.126,1369.052,98.404z"/>
<rect x="1351.238" y="46.461" fill="#FFDE95" width="12.596" height="5.539"/>
<path fill="#635C5C" d="M1370.658,102.369V62.112c1.701-0.908,2.908-2.65,2.908-4.714c0-2.982-2.416-5.398-5.397-5.398h-4.335v20.26
	h-12.596V52h-4.334c-2.979,0-5.398,2.416-5.398,5.398c0,2.065,1.207,3.806,2.912,4.714v40.263
	c-15.803,5.443-23.048,20.408-23.048,38.065v103.854h72.331V140.44C1393.701,122.783,1386.456,107.818,1370.658,102.369z"/>
<rect x="1351.051" y="52.021" fill="#635747" width="13.096" height="20.551"/>
<rect x="1344.166" y="85.106" fill="#EDE6D6" width="26.74" height="17.206"/>
<g>
	<rect x="1321.369" y="139.347" fill="#FFFFFF" width="54.966" height="66.356"/>
	<rect x="1321.389" y="144.902" fill="#FFDE95" width="49.763" height="55.245"/>
	<path fill="#FF8D76" d="M1359.339,170.031v-0.424c0,7.229-2.383,13.338-9.846,13.336c-2.08,0.002-3.851-1.346-5.705-2.18
		c3.327-3.146,5.551-7.434,5.551-12.019v-0.431v-1.863c0-4.352-4.511-7.889-8.858-7.889c-2.829,0-6.146,2.016-7.271,4.804
		c-1.018,2.521-1.062,5.315-1.021,6.489c0.073,2.102,0.611,5.883,2.403,8.535c0.5,0.742,1.006,1.438,1.624,2.088l-0.168,0.162
		c-1.916,0.916-3.136,2.301-5.314,2.301c-4.994,0-8.396-2.834-9.396-7.15v6.271c2,2.695,5.151,4.324,9.396,4.324
		c3.232,0,6.099-1.801,8.764-3.406c2.661,1.605,5.789,3.4,9.025,3.4c9.327,0.002,11.941-7.193,11.943-16.291l-0.179-0.062
		L1359.339,170.031L1359.339,170.031z M1335.498,169.529c-0.141-1.073,0.279-3.648,0.513-4.479c0.445-1.58,3.019-3.043,4.658-3.043
		c2.452,0.002,4.67,1.993,4.67,4.443v1.864v0.433c0,3.213-1.938,6.588-4.862,9.327
		C1337.975,175.577,1335.964,173.1,1335.498,169.529z"/>
</g>
<rect x="1261.059" y="150.686" fill="#FFA28C" width="33.881" height="11.314"/>
<path fill="#FCF4E2" d="M1263.445,246h32.024c8.939-3,13.527-9.506,13.527-21.338v-37.008c0-13.424-8-21.072-18-23.823V162h-26
	v1.831c-10,2.751-18,10.399-18,23.823v37.008C1247,236.494,1254.508,243,1263.445,246z"/>
<rect x="1269.507" y="184.743" fill="#FFA28C" width="39.492" height="40.505"/>
<rect x="1393.701" y="190.294" fill="#FF8D76" width="59" height="54"/>
<rect x="1421.701" y="190.294" fill="#FFDE95" width="3" height="54"/>
<rect x="1393.701" y="215.294" fill="#FFDE95" width="59" height="3"/>
<polygon fill="#FCF4E2" points="783.625,238.654 755.028,210.059 744.697,236.797 756.886,248.986 "/>
<polygon fill="#FFA28C" points="756.886,248.986 744.697,236.797 737.023,256.66 "/>
<circle fill="#FFE8B5" cx="1050.283" cy="147.717" r="115.717"/>
<linearGradient id="SVGID_1_" gradientUnits="userSpaceOnUse" x1="704.1445" y1="16.041" x2="704.1445" y2="-177.8267" gradientTransform="matrix(1 0 0 -1 348 68)">
	<stop  offset="0" style="stop-color:#FFFFFF"/>
	<stop  offset="1" style="stop-color:#FFFFFF;stop-opacity:0"/>
	<stop  offset="1" style="stop-color:#000000"/>
</linearGradient>
<polygon opacity="0.8" fill="url(#SVGID_1_)" enable-background="new    " points="1052.145,77.547 1083.641,51.959 1094.08,91.173 
	1134.602,88.984 1119.998,126.846 1154.066,148.893 1119.998,170.939 1134.602,208.801 1094.08,206.611 1086.641,245.826 
	1053.145,220.238 1020.648,245.826 1010.209,206.611 969.688,208.801 984.291,170.939 950.223,148.893 984.291,126.846 
	969.688,88.984 1010.209,91.173 1020.648,51.959 "/>
<path fill="#FFDE95" d="M1052.588,86.844c-30.926,0-56,25.074-56,56c0,9.758,2.514,18.92,6.904,26.905
	c8.174,11.918,23.508,25.786,23.508,44.595c0,1.569-0.081,3.119-0.208,4.656h52.454c-0.155-1.699-0.246-3.417-0.246-5.156
	c0-18.41,18.334-34.177,22.607-43.953c4.438-8.019,6.979-17.229,6.979-27.047C1108.588,111.918,1083.517,86.844,1052.588,86.844z"/>
<path opacity="0.7" fill="#3C3533" enable-background="new    " d="M1083,230.5c0,2.484-2.015,4.5-4.5,4.5h-50
	c-2.485,0-4.5-2.016-4.5-4.5l0,0c0-2.484,2.015-4.5,4.5-4.5h50C1080.985,226,1083,228.016,1083,230.5L1083,230.5z"/>
<path opacity="0.7" fill="#3C3533" enable-background="new    " d="M1083,246.5c0,2.484-2.015,4.5-4.5,4.5h-50
	c-2.485,0-4.5-2.016-4.5-4.5l0,0c0-2.484,2.015-4.5,4.5-4.5h50C1080.985,242,1083,244.016,1083,246.5L1083,246.5z"/>
<path opacity="0.7" fill="#3C3533" enable-background="new    " d="M1083,262.5c0,2.484-2.015,4.5-4.5,4.5h-50
	c-2.485,0-4.5-2.016-4.5-4.5l0,0c0-2.484,2.015-4.5,4.5-4.5h50C1080.985,258,1083,260.016,1083,262.5L1083,262.5z"/>
<path fill="#FF8D76" d="M1062.711,149.967c-3.142,0-6.381,1.745-8.967,3.305c-2.585-1.56-5.854-3.305-8.995-3.305
	c-9.054,0-11.71,7.457-11.71,16.285l8.352,52.748H1045v-3.059l-9-49.271v-0.418c0-7.018,1.322-12.943,8.564-12.943
	c2.021,0,4.38,1.308,6.18,2.116c-3.229,3.056-4.744,7.212-4.744,11.662v0.418v1.812c0,4.223,3.241,7.654,7.463,7.654
	c3.354,0,6.367-2.146,7.379-5.345l0.158-0.247v-3.874v-0.209v-0.209c0-0.167-0.194-0.328-0.197-0.494
	c-0.005-0.108-0.096-0.219-0.103-0.327c-0.173-4.179-1.686-7.841-4.287-10.565l0.188-0.16c1.861-0.89,4.189-2.229,6.312-2.229
	c6.901,0,8.089,5.563,8.089,12.943v0.418l-9,49.271V219h3.609l8.352-52.748C1073.961,156.968,1071.52,149.967,1062.711,149.967z
	 M1057,170.843c-1,1.677-2.051,2.787-3.861,2.787c-2.379,0-4.139-1.937-4.139-4.313v-1.812v-0.418c0-3.117,1.487-6.394,4.328-9.054
	c2.428,2.426,3.672,5.768,3.672,9.263v0.209V170.843z"/>
</svg>
