<?xml version="1.0" encoding="utf-8"?>
<!-- Generator: Adobe Illustrator 16.0.0, SVG Export Plug-In . SVG Version: 6.00 Build 0)  -->
<!DOCTYPE svg PUBLIC "-//W3C//DTD SVG 1.1//EN" "http://www.w3.org/Graphics/SVG/1.1/DTD/svg11.dtd">
<svg version="1.1" id="Layer_1" xmlns="http://www.w3.org/2000/svg" xmlns:xlink="http://www.w3.org/1999/xlink" x="0px" y="0px"
	 width="900px" height="220px" viewBox="0 0 900 220" enable-background="new 0 0 900 220" xml:space="preserve">
<rect x="25" y="17.173" fill="#FFFFFF" stroke="#000000" stroke-width="4" stroke-linecap="round" stroke-linejoin="round" stroke-miterlimit="10" width="199" height="131"/>
<path fill="#FFFFFF" stroke="#000000" stroke-width="4" stroke-linecap="round" stroke-linejoin="round" stroke-miterlimit="10" d="
	M221.875,4.173H27.125C19.6,4.173,13,9.772,13,17.298v130.75c0,7.525,6.6,14.125,14.125,14.125H99v14H72v15h105v-15h-25v-14h69.875
	c7.525,0,13.125-6.6,13.125-14.125V17.298C235,9.772,229.4,4.173,221.875,4.173z"/>
<rect x="25" y="17.173" fill="#FFFFFF" stroke="#000000" stroke-width="4" stroke-linecap="round" stroke-linejoin="round" stroke-miterlimit="10" width="199" height="131"/>
<rect x="25" y="17.173" fill="#FFFFFF" stroke="#000000" stroke-width="4" stroke-linecap="round" stroke-linejoin="round" stroke-miterlimit="10" width="199" height="14"/>
<polygon fill="#FFFFFF" stroke="#000000" stroke-width="4" stroke-linecap="round" stroke-linejoin="round" stroke-miterlimit="10" points="
	154.09,91.34 110,49.956 110,110.71 126.366,96.758 137.788,122.304 146.602,118.626 135.428,93.376 "/>
<path fill="#FFFFFF" stroke="#000000" stroke-width="4" stroke-linecap="round" stroke-linejoin="round" stroke-miterlimit="10" d="
	M254,188.878c0,3.477-2.818,6.295-6.295,6.295h-50.41c-3.477,0-6.295-2.818-6.295-6.295v-90.41c0-3.477,2.818-6.295,6.295-6.295
	h50.41c3.477,0,6.295,2.818,6.295,6.295V188.878z"/>
<rect x="201" y="105.173" fill="#FFFFFF" stroke="#000000" stroke-width="4" stroke-linecap="round" stroke-linejoin="round" stroke-miterlimit="10" width="44" height="66"/>
<rect x="201" y="105.173" fill="#FFFFFF" stroke="#000000" stroke-width="4" stroke-linecap="round" stroke-linejoin="round" stroke-miterlimit="10" width="44" height="11"/>
<circle fill="#FFFFFF" stroke="#000000" stroke-width="4" stroke-linecap="round" stroke-linejoin="round" stroke-miterlimit="10" cx="225.335" cy="182.376" r="5.674"/>
<rect x="375" y="12.173" fill="#FFFFFF" stroke="#000000" stroke-width="4" stroke-linecap="round" stroke-linejoin="round" stroke-miterlimit="10" width="139" height="155"/>
<rect x="375" y="6.173" fill="#FFFFFF" stroke="#000000" stroke-width="4" stroke-linecap="round" stroke-linejoin="round" stroke-miterlimit="10" width="139" height="152"/>
<rect x="376" y="4.173" fill="#FFFFFF" stroke="#000000" stroke-width="4" stroke-linecap="round" stroke-linejoin="round" stroke-miterlimit="10" width="139" height="145"/>
<rect x="406" y="27.173" fill="#FFFFFF" stroke="#000000" stroke-width="4" stroke-linecap="round" stroke-linejoin="round" stroke-miterlimit="10" width="84" height="94"/>
<polygon fill="#FFFFFF" stroke="#000000" stroke-width="4" stroke-linecap="round" stroke-linejoin="round" stroke-miterlimit="10" points="
	458.718,67.03 447.142,79.552 422.404,55.42 406,71.14 406,118.775 406,121.173 490.129,121.173 490,121.173 490,99.592 "/>
<circle fill="#FFFFFF" stroke="#000000" stroke-width="4" stroke-linecap="round" stroke-linejoin="round" stroke-miterlimit="10" cx="470.846" cy="47.043" r="9.512"/>
<g>
	
		<rect x="507.97" y="92.118" transform="matrix(0.7071 0.7071 -0.7071 0.7071 257.6964 -330.818)" fill="#FFFFFF" stroke="#000000" stroke-width="4" stroke-linecap="round" stroke-linejoin="round" stroke-miterlimit="10" width="40.441" height="107.095"/>
	
		<rect x="535.09" y="103.352" transform="matrix(0.7072 0.7071 -0.7071 0.7072 268.899 -335.4539)" fill="#FFFFFF" stroke="#000000" stroke-width="4" stroke-linecap="round" stroke-linejoin="round" stroke-miterlimit="10" width="8.668" height="107.094"/>
	
		<polygon fill="#FFFFFF" stroke="#000000" stroke-width="4" stroke-linecap="round" stroke-linejoin="round" stroke-miterlimit="10" points="
		504.625,197.827 476.028,169.231 465.697,195.97 477.886,208.159 	"/>
	
		<polygon fill="#FFFFFF" stroke="#000000" stroke-width="4" stroke-linecap="round" stroke-linejoin="round" stroke-miterlimit="10" points="
		477.886,208.159 465.697,195.97 458.023,215.833 	"/>
</g>
<polygon fill="#FFFFFF" stroke="#000000" stroke-width="4" stroke-linecap="round" stroke-linejoin="round" stroke-miterlimit="10" points="
	887,29.173 656,29.173 656,169.173 754.779,169.173 755.291,172.173 787.584,172.173 788.351,169.173 887,169.173 "/>
<path fill="#FFFFFF" stroke="#000000" stroke-width="4" stroke-linecap="round" stroke-linejoin="round" stroke-miterlimit="10" d="
	M878.006,159.341c-25.474,0-51.094,0.854-76.541,0.207c-11.633-0.294-20.292-0.451-30.029,6.582
	c-0.359,0.253-7.546-4.775-8.522-5.197c-6.497-2.785-37.769-1.695-45.425-1.607c-14.418,0.162-28.849,0.023-43.268,0
	c-3.118-0.008-6.236,0.016-9.354,0.016V28.876h213.14V159.341z"/>
<path fill="#FFFFFF" stroke="#000000" stroke-width="4" stroke-linecap="round" stroke-linejoin="round" stroke-miterlimit="10" d="
	M813.049,7.074c-4.758-0.552-9.543-0.973-14.261-1.035c-11.343-0.149-22.177,8.439-25.741,19.024
	c-0.999,2.967-1.611,6.437-1.611,9.574c0-6.522-3.026-14.331-7.196-19.253c-5.012-5.915-12.291-8.91-19.935-9.297
	c-11.509-0.582-23.723,2.441-35.12,3.914c-12.036,1.556-24.048,3.314-36.072,4.964c-0.468,0.064-8.246,0.984-8.246,1.148v133.276
	c0,0,59.786-12.353,77.501-12.353c7.645,0,16.795-2.484,28.527,9.25h1.082c11.732-11.734,20.883-9.25,28.527-9.25
	c17.715,0,77.502,12.353,77.502,12.353V16.114c-6.424-0.887-12.842-1.833-19.272-2.674c-11.861-1.55-23.665-3.475-35.52-5.059
	C819.862,7.934,816.463,7.47,813.049,7.074z"/>
<path fill="#FFFFFF" stroke="#000000" stroke-width="4" stroke-linecap="round" stroke-linejoin="round" stroke-miterlimit="10" d="
	M808.697,37.511c-2.885-1.057-15.959-0.912-15.959-0.912c-3.425,0.809-7.738,2.268-9.738,4.229V97.17
	c2-1.953,6.721-3.407,10.137-4.213c0,0,12.266-0.146,15.15,0.913L834,97.476V41.118L808.697,37.511z"/>
<path fill="#FFFFFF" stroke="#000000" stroke-width="4" stroke-linecap="round" stroke-linejoin="round" stroke-miterlimit="10" d="
	M809.027,73.507l6.438-7.57L834,85.591V41.118c-7.964-1.136-15.884-2.578-23.875-3.524c-5.195-0.614-10.465-1.393-15.706-0.921
	C792.814,36.816,783,38.155,783,40.828c0,0.009,0,27.589,0,27.589l10.471-9.494L809.027,73.507z"/>
<path fill="#FFFFFF" stroke="#000000" stroke-width="4" stroke-linecap="round" stroke-linejoin="round" stroke-miterlimit="10" d="
	M793.137,92.957c0,0,12.266-0.146,15.15,0.913L834,97.476V85.591l-18.534-19.654l-6.938,7.57l-15.307-14.584L783,68.417V97.17
	C785,95.217,789.721,93.763,793.137,92.957z"/>
<path opacity="0.7" fill="#FFFFFF" stroke="#000000" stroke-width="4" stroke-linecap="round" stroke-linejoin="round" stroke-miterlimit="10" d="
	M793.146,93.016c0.64-0.096,1.261-0.169,1.849-0.22c5.007-0.438,10.024,0.605,14.958,1.31c8.013,1.144,16.032,2.246,24.048,3.37
	V85.591l-18.534-19.654l-6.938,7.57l-15.307-14.584L783,68.417V97.17C785.426,94.802,789.583,93.548,793.146,93.016z"/>
<circle fill="#FFFFFF" stroke="#000000" stroke-width="4" stroke-linecap="round" stroke-linejoin="round" stroke-miterlimit="10" cx="822.793" cy="54.966" r="6.126"/>
<path d="M689,72.965c0.916-0.048,1-0.101,2-0.156V44.673l4-0.188v11.688v16.428c2-0.054,3-0.106,3-0.155V55.798l6-0.574
	c0,0,0.723,0.006,0.76,0.006c3.822,0,7.172-3.205,7.172-7.028s-3.975-7.028-7.797-7.028c-0.037,0-20.135,1-20.135,1v3l4.562-0.312
	L689,72.965z"/>
<path d="M760,85.076c-6.328-3.956-18.497-2.926-24.021-2.926c-9.935,0-33.979,3.192-51.979,6.573v4
	c18-3.381,42.044-6.573,51.979-6.573c5.524,0,17.693-1.03,24.021,2.926V85.076z"/>
<path d="M760,106.076c-6.328-3.956-18.497-2.926-24.021-2.926c-9.935,0-33.979,3.192-51.979,6.573v4
	c18-3.381,42.044-6.573,51.979-6.573c5.524,0,17.693-1.03,24.021,2.926V106.076z"/>
<path d="M735.979,61.15c-3.709,0-9.385,0.445-15.979,1.179v4c6.594-0.733,12.27-1.179,15.979-1.179
	c5.524,0,17.693-1.03,24.021,2.926v-4C753.672,60.12,741.503,61.15,735.979,61.15z"/>
<path d="M735.979,41.15c-3.709,0-9.385,0.445-15.979,1.179v4c6.594-0.733,12.27-1.179,15.979-1.179
	c5.524,0,17.693-1.03,24.021,2.926v-4C753.672,40.12,741.503,41.15,735.979,41.15z"/>
</svg>
