<?xml version="1.0" encoding="utf-8"?>
<!-- Generator: Adobe Illustrator 16.0.0, SVG Export Plug-In . SVG Version: 6.00 Build 0)  -->
<!DOCTYPE svg PUBLIC "-//W3C//DTD SVG 1.1//EN" "http://www.w3.org/Graphics/SVG/1.1/DTD/svg11.dtd">
<svg version="1.1" id="Layer_1" xmlns="http://www.w3.org/2000/svg" xmlns:xlink="http://www.w3.org/1999/xlink" x="0px" y="0px"
	 width="300px" height="300px" viewBox="0 0 300 300" enable-background="new 0 0 300 300" xml:space="preserve">
<path fill="#FFDE95" d="M149.2,53.11c-68.564,0-124.148,44.029-124.148,98.338c0,58.117,67.004,81.655,114.596,87.549
	c6.422,0.799,12.881,1.037,19.311,0.174c3.752-0.496,14.877-1.425,17.463-4.329c6.059-6.821,4.328-18.773-2.005-24.688
	c-6.301-5.894-21.187-7.31-20.702-18.116c0.965-21.944,26.717,1.969,62.832,3.844c26.539,1.385,48.787-14.654,54.58-34.312
	c0.471,0.303,2.23-6.389,2.23-10.121C273.356,97.14,217.769,53.11,149.2,53.11z"/>
<g>
	<path fill="#3C3533" d="M253.588,245.246c-1.142,0-2.229-0.656-2.731-1.758l-14.391-31.593l-20.101,16.696
		c-0.549,0.456-1.23,0.692-1.918,0.692c-0.432,0-1.117-0.094-1.523-0.284c-1.053-0.494-1.976-1.553-1.976-2.716v-83.633
		c0-1.193,0.957-2.273,2.052-2.75c0.386-0.168,0.918-0.25,1.322-0.25c0.744,0,1.54,0.276,2.106,0.803l61.315,56.969
		c0.859,0.799,1.189,2.025,0.82,3.14c-0.368,1.114-1.345,1.911-2.512,2.04l-21.368,2.352l13.918,31
		c0.332,0.74,0.352,1.584,0.051,2.338c-0.3,0.755-0.893,1.354-1.643,1.664l-12.28,5.062
		C254.356,245.173,253.97,245.246,253.588,245.246z"/>
	<path fill="#FFFFFF" d="M213.948,142.651l61.534,56.969l-25.344,2.803l15.666,34.76l-12.249,5.062l-16.253-35.166l-23.354,19.205
		V142.89 M214.447,136.651c-0.81,0-1.875,0.163-2.646,0.5c-2.188,0.953-3.854,3.113-3.854,5.5v83.633
		c0,2.326,1.595,4.443,3.701,5.432c0.812,0.382,1.809,0.568,2.673,0.568c1.375,0,2.799-0.472,3.897-1.385l17.111-14.188
		l12.78,28.021c1.003,2.202,3.187,3.514,5.47,3.514c0.764,0,1.541-0.146,2.289-0.454l12.282-5.062
		c1.501-0.618,2.688-1.819,3.288-3.327c0.601-1.509,0.564-3.196-0.1-4.677l-12.228-27.24l17.275-1.901
		c2.333-0.257,4.302-1.851,5.04-4.078c0.737-2.229,0.107-4.683-1.611-6.28l-61.284-56.969
		C217.401,137.204,215.935,136.651,214.447,136.651L214.447,136.651z"/>
</g>
<g>
	<path opacity="0.8" fill="#FFFFFF" d="M76.372,134.585c-2.699-4.756-8.365-6.703-17.134-1.62
		c-9.122,5.288-17.759,23.142-5.076,29.109C68.933,169.024,83.632,147.382,76.372,134.585z"/>
	<path opacity="0.3" fill="#3C3533" d="M107.697,86.891c-10.312-2.506-24.3,3.897-26.65,13.814
		c-1.978,8.342,2.948,17.182,10.776,20.569c11.433,4.947,21.413-1.56,25.162-12.472c1.59-4.626,2.432-10.281,0.078-14.819
		C115.051,90.113,111.644,87.851,107.697,86.891z"/>
	<path opacity="0.7" fill="#3C3533" d="M154.335,78.324c-8.503,1.58-16.49,7.048-17.045,14.723
		c-1.147,15.888,27.895,26.232,35.307,11.006c2.86-5.876,4.284-14.571,0.312-20.269C169.19,78.453,161.576,76.979,154.335,78.324z"
		/>
	<path fill="#FFA28C" d="M223.553,102.91c-0.381-4.588-1.034-8.777-5.09-11.467c-13.716-9.093-33.04,8.134-23.567,22.347
		c3.614,5.422,11.812,8.31,18.066,7.165C222.544,119.202,224.271,111.542,223.553,102.91z"/>
</g>
</svg>
