<?xml version="1.0" encoding="utf-8"?>
<!-- Generator: Adobe Illustrator 16.0.0, SVG Export Plug-In . SVG Version: 6.00 Build 0)  -->
<!DOCTYPE svg PUBLIC "-//W3C//DTD SVG 1.1//EN" "http://www.w3.org/Graphics/SVG/1.1/DTD/svg11.dtd">
<svg version="1.1" id="Layer_1" xmlns="http://www.w3.org/2000/svg" xmlns:xlink="http://www.w3.org/1999/xlink" x="0px" y="0px"
	 width="753px" height="532px" viewBox="0 0 753 532" enable-background="new 0 0 753 532" xml:space="preserve">
<g>
	<path fill="#3FAF90" d="M137.572,237.812v-13.902H122.96v13.902h-6.526v-33.526h6.526v13.477h14.612v-13.477h6.573v33.526H137.572z
		"/>
	<path fill="#3FAF90" d="M175.115,226.179c0,7.141-5.249,12.342-12.2,12.342s-12.2-5.202-12.2-12.342
		c0-7.188,5.249-12.342,12.2-12.342S175.115,218.991,175.115,226.179z M168.826,226.179c0-4.397-2.837-6.62-5.911-6.62
		c-3.073,0-5.911,2.223-5.911,6.62c0,4.351,2.837,6.621,5.911,6.621C165.988,232.799,168.826,230.577,168.826,226.179z"/>
	<path fill="#3FAF90" d="M201.025,214.546l5.013,14.99l4.303-14.99h6.242l-7.282,23.265h-6.289l-5.438-15.889l-5.343,15.889h-6.384
		l-7.424-23.265h6.62l4.303,14.943l5.06-14.943H201.025z"/>
	<path fill="#3FAF90" d="M234.453,237.812v-23.265h6.005v2.837c1.277-2.27,4.256-3.5,6.81-3.5c3.168,0,5.722,1.372,6.904,3.877
		c1.844-2.837,4.303-3.877,7.376-3.877c4.303,0,8.417,2.601,8.417,8.843v15.084h-6.1v-13.808c0-2.506-1.229-4.398-4.114-4.398
		c-2.695,0-4.303,2.081-4.303,4.587v13.619h-6.242v-13.808c0-2.506-1.277-4.398-4.114-4.398c-2.743,0-4.351,2.033-4.351,4.587
		v13.619H234.453z"/>
	<path fill="#3FAF90" d="M280.602,203.008c2.175,0,3.877,1.75,3.877,3.925c0,2.081-1.703,3.83-3.877,3.83
		c-2.128,0-3.878-1.75-3.878-3.83C276.724,204.758,278.474,203.008,280.602,203.008z M277.48,237.812v-23.265h6.289v23.265H277.48z"
		/>
	<path fill="#3FAF90" d="M295.638,237.575c0.425,2.553,2.459,4.397,5.438,4.397c3.972,0,6.194-1.986,6.194-6.478v-1.703
		c-0.946,1.513-3.121,2.979-6.478,2.979c-6.195,0-10.829-4.776-10.829-11.301c0-6.147,4.445-11.349,10.829-11.349
		c3.688,0,5.816,1.608,6.62,3.168v-2.743h6.053v20.759c0,6.384-3.452,12.2-12.2,12.2c-6.384,0-10.64-3.972-11.302-8.417
		L295.638,237.575z M307.365,225.47c0-3.594-2.459-5.864-5.485-5.864c-3.121,0-5.58,2.27-5.58,5.864c0,3.641,2.317,5.911,5.58,5.911
		C305.095,231.38,307.365,229.063,307.365,225.47z"/>
	<path fill="#3FAF90" d="M327.27,237.812h-6.289v-34.236h6.289v12.909c1.513-1.797,4.067-2.553,6.289-2.553
		c5.911,0,8.654,4.114,8.654,9.221v14.659h-6.289V224.24c0-2.601-1.277-4.634-4.303-4.634c-2.648,0-4.208,1.986-4.351,4.54V237.812z
		"/>
	<path fill="#3FAF90" d="M357.484,214.546h4.682v5.58h-4.682v9.741c0,2.034,0.946,2.695,2.743,2.695
		c0.757,0,1.608-0.094,1.939-0.189v5.202c-0.567,0.236-1.703,0.567-3.546,0.567c-4.54,0-7.377-2.695-7.377-7.188v-10.829h-4.208
		v-5.58h1.182c2.459,0,3.594-1.608,3.594-3.688v-3.263h5.674V214.546z"/>
	<path fill="#3FAF90" d="M389.068,214.546h4.682v5.58h-4.682v9.741c0,2.034,0.946,2.695,2.743,2.695
		c0.756,0,1.607-0.094,1.938-0.189v5.202c-0.567,0.236-1.702,0.567-3.547,0.567c-4.539,0-7.376-2.695-7.376-7.188v-10.829h-4.208
		v-5.58h1.182c2.459,0,3.594-1.608,3.594-3.688v-3.263h5.674V214.546z"/>
	<path fill="#3FAF90" d="M420.938,231.144c-1.183,4.02-4.87,7.377-10.592,7.377c-6.384,0-12.012-4.587-12.012-12.437
		c0-7.424,5.485-12.248,11.443-12.248c7.188,0,11.491,4.587,11.491,12.058c0,0.898-0.095,1.844-0.095,1.939h-16.645
		c0.142,3.074,2.742,5.296,5.863,5.296c2.932,0,4.539-1.466,5.296-3.546L420.938,231.144z M415.074,223.531
		c-0.095-2.317-1.608-4.587-5.202-4.587c-3.263,0-5.06,2.459-5.201,4.587H415.074z"/>
	<path fill="#3FAF90" d="M431.906,226.179c0,4.209,2.743,6.573,5.959,6.573c3.215,0,4.823-2.128,5.343-3.925l5.533,1.844
		c-1.041,3.877-4.682,7.85-10.876,7.85c-6.857,0-12.248-5.202-12.248-12.342c0-7.188,5.297-12.342,12.059-12.342
		c6.336,0,9.931,3.925,10.923,7.85l-5.627,1.892c-0.567-1.939-2.033-3.925-5.154-3.925
		C434.602,219.653,431.906,221.97,431.906,226.179z"/>
	<path fill="#3FAF90" d="M460.796,237.812h-6.289v-34.236h6.289v12.909c1.514-1.797,4.066-2.553,6.289-2.553
		c5.911,0,8.653,4.114,8.653,9.221v14.659h-6.289V224.24c0-2.601-1.276-4.634-4.303-4.634c-2.648,0-4.209,1.986-4.351,4.54V237.812z
		"/>
	<path fill="#3FAF90" d="M489.544,237.812h-6.289v-23.265h6.1v2.884c1.419-2.412,4.209-3.499,6.715-3.499
		c5.77,0,8.417,4.114,8.417,9.221v14.659h-6.289V224.24c0-2.601-1.276-4.634-4.303-4.634c-2.743,0-4.351,2.128-4.351,4.823V237.812z
		"/>
	<path fill="#3FAF90" d="M534.654,226.179c0,7.141-5.249,12.342-12.2,12.342s-12.2-5.202-12.2-12.342
		c0-7.188,5.249-12.342,12.2-12.342S534.654,218.991,534.654,226.179z M528.365,226.179c0-4.397-2.837-6.62-5.911-6.62
		c-3.073,0-5.911,2.223-5.911,6.62c0,4.351,2.838,6.621,5.911,6.621C525.528,232.799,528.365,230.577,528.365,226.179z"/>
	<path fill="#3FAF90" d="M540.752,237.812v-34.236h6.289v34.236H540.752z"/>
	<path fill="#3FAF90" d="M577.54,226.179c0,7.141-5.249,12.342-12.2,12.342s-12.2-5.202-12.2-12.342
		c0-7.188,5.249-12.342,12.2-12.342S577.54,218.991,577.54,226.179z M571.251,226.179c0-4.397-2.837-6.62-5.911-6.62
		c-3.073,0-5.911,2.223-5.911,6.62c0,4.351,2.838,6.621,5.911,6.621C568.414,232.799,571.251,230.577,571.251,226.179z"/>
	<path fill="#3FAF90" d="M587.657,237.575c0.426,2.553,2.459,4.397,5.438,4.397c3.973,0,6.195-1.986,6.195-6.478v-1.703
		c-0.946,1.513-3.121,2.979-6.479,2.979c-6.194,0-10.829-4.776-10.829-11.301c0-6.147,4.445-11.349,10.829-11.349
		c3.688,0,5.816,1.608,6.62,3.168v-2.743h6.053v20.759c0,6.384-3.452,12.2-12.2,12.2c-6.384,0-10.64-3.972-11.302-8.417
		L587.657,237.575z M599.384,225.47c0-3.594-2.458-5.864-5.485-5.864c-3.12,0-5.579,2.27-5.579,5.864
		c0,3.641,2.316,5.911,5.579,5.911C597.114,231.38,599.384,229.063,599.384,225.47z"/>
	<path fill="#3FAF90" d="M614.371,246.985l5.485-12.105l-9.883-20.333h7.046l6.194,13.619l5.722-13.619h6.715l-14.611,32.439
		H614.371z"/>
	<path fill="#3FAF90" d="M101.802,281.169l5.722-0.851c1.324-0.189,1.75-0.851,1.75-1.655c0-1.655-1.277-3.026-3.925-3.026
		c-2.743,0-4.256,1.75-4.445,3.783l-5.58-1.182c0.378-3.641,3.736-7.661,9.978-7.661c7.377,0,10.12,4.161,10.12,8.843v11.443
		c0,1.229,0.142,2.885,0.284,3.688h-5.769c-0.142-0.615-0.236-1.892-0.236-2.79c-1.183,1.844-3.405,3.452-6.857,3.452
		c-4.965,0-7.991-3.357-7.991-6.999C94.851,284.054,97.924,281.737,101.802,281.169z M109.273,285.142v-1.04l-5.249,0.804
		c-1.607,0.236-2.884,1.135-2.884,2.932c0,1.372,0.993,2.695,3.026,2.695C106.814,290.532,109.273,289.256,109.273,285.142z"/>
	<path fill="#3FAF90" d="M145.067,290.343c0,1.561,0.094,3.263,0.189,4.208h-6.005c-0.095-0.473-0.236-1.608-0.236-2.695
		c-1.041,1.844-3.405,3.263-6.526,3.263c-6.62,0-11.349-5.202-11.349-12.247c0-6.81,4.587-12.153,11.16-12.153
		c4.02,0,5.911,1.655,6.573,2.884v-13.288h6.195V290.343z M133.246,289.492c3.215,0,5.722-2.459,5.722-6.667
		c0-4.162-2.506-6.479-5.722-6.479c-3.216,0-5.769,2.364-5.769,6.526C127.477,287.033,129.936,289.492,133.246,289.492z"/>
	<path fill="#3FAF90" d="M175.187,290.343c0,1.561,0.094,3.263,0.189,4.208h-6.005c-0.095-0.473-0.236-1.608-0.236-2.695
		c-1.041,1.844-3.405,3.263-6.526,3.263c-6.62,0-11.349-5.202-11.349-12.247c0-6.81,4.587-12.153,11.16-12.153
		c4.02,0,5.911,1.655,6.573,2.884v-13.288h6.195V290.343z M163.365,289.492c3.215,0,5.722-2.459,5.722-6.667
		c0-4.162-2.506-6.479-5.722-6.479c-3.216,0-5.769,2.364-5.769,6.526C157.596,287.033,160.055,289.492,163.365,289.492z"/>
	<path fill="#3FAF90" d="M201.474,281.169l5.722-0.851c1.324-0.189,1.75-0.851,1.75-1.655c0-1.655-1.277-3.026-3.925-3.026
		c-2.743,0-4.256,1.75-4.445,3.783l-5.58-1.182c0.378-3.641,3.736-7.661,9.978-7.661c7.377,0,10.12,4.161,10.12,8.843v11.443
		c0,1.229,0.142,2.885,0.284,3.688h-5.769c-0.142-0.615-0.236-1.892-0.236-2.79c-1.183,1.844-3.405,3.452-6.857,3.452
		c-4.965,0-7.991-3.357-7.991-6.999C194.523,284.054,197.596,281.737,201.474,281.169z M208.945,285.142v-1.04l-5.249,0.804
		c-1.607,0.236-2.884,1.135-2.884,2.932c0,1.372,0.993,2.695,3.026,2.695C206.486,290.532,208.945,289.256,208.945,285.142z"/>
	<path fill="#3FAF90" d="M235.375,294.552v-34.236h6.289v34.236H235.375z"/>
	<path fill="#3FAF90" d="M255.045,281.169l5.722-0.851c1.324-0.189,1.75-0.851,1.75-1.655c0-1.655-1.277-3.026-3.925-3.026
		c-2.743,0-4.256,1.75-4.445,3.783l-5.58-1.182c0.378-3.641,3.736-7.661,9.978-7.661c7.377,0,10.12,4.161,10.12,8.843v11.443
		c0,1.229,0.142,2.885,0.284,3.688h-5.769c-0.142-0.615-0.236-1.892-0.236-2.79c-1.183,1.844-3.405,3.452-6.857,3.452
		c-4.965,0-7.991-3.357-7.991-6.999C248.094,284.054,251.167,281.737,255.045,281.169z M262.517,285.142v-1.04l-5.249,0.804
		c-1.607,0.236-2.884,1.135-2.884,2.932c0,1.372,0.993,2.695,3.026,2.695C260.058,290.532,262.517,289.256,262.517,285.142z"/>
	<path fill="#3FAF90" d="M277.504,303.726l5.485-12.105l-9.883-20.333h7.046l6.194,13.619l5.722-13.619h6.715l-14.612,32.439
		H277.504z"/>
	<path fill="#3FAF90" d="M324.6,287.884c-1.182,4.02-4.871,7.377-10.592,7.377c-6.384,0-12.011-4.587-12.011-12.437
		c0-7.424,5.485-12.248,11.443-12.248c7.188,0,11.491,4.587,11.491,12.058c0,0.898-0.095,1.844-0.095,1.939h-16.645
		c0.142,3.074,2.743,5.296,5.864,5.296c2.932,0,4.54-1.466,5.296-3.546L324.6,287.884z M318.736,280.271
		c-0.094-2.317-1.607-4.587-5.201-4.587c-3.263,0-5.06,2.459-5.202,4.587H318.736z"/>
	<path fill="#3FAF90" d="M345.214,277.528c-0.709-0.142-1.324-0.189-1.892-0.189c-3.215,0-6.005,1.561-6.005,6.573v10.64h-6.289
		v-23.265h6.1v3.452c1.418-3.073,4.634-3.641,6.62-3.641c0.52,0,0.993,0.047,1.466,0.094V277.528z"/>
	<path fill="#3FAF90" d="M386.115,282.919c0,7.141-5.25,12.342-12.201,12.342s-12.2-5.202-12.2-12.342
		c0-7.188,5.249-12.342,12.2-12.342S386.115,275.731,386.115,282.919z M379.826,282.919c0-4.397-2.837-6.62-5.911-6.62
		c-3.073,0-5.911,2.223-5.911,6.62c0,4.351,2.837,6.621,5.911,6.621C376.988,289.54,379.826,287.317,379.826,282.919z"/>
	<path fill="#3FAF90" d="M399.731,268.733v2.554h5.249v5.391h-5.249v17.875h-6.337v-17.875h-3.877v-5.391h3.877v-2.648
		c0-5.249,3.311-8.654,8.465-8.654c1.324,0,2.601,0.236,3.121,0.473v5.296c-0.331-0.095-0.946-0.236-1.986-0.236
		C401.575,265.518,399.731,266.132,399.731,268.733z"/>
	<path fill="#3FAF90" d="M445.171,290.343c0,1.561,0.095,3.263,0.188,4.208h-6.005c-0.095-0.473-0.236-1.608-0.236-2.695
		c-1.04,1.844-3.405,3.263-6.525,3.263c-6.62,0-11.35-5.202-11.35-12.247c0-6.81,4.587-12.153,11.16-12.153
		c4.02,0,5.911,1.655,6.573,2.884v-13.288h6.194V290.343z M433.349,289.492c3.216,0,5.722-2.459,5.722-6.667
		c0-4.162-2.506-6.479-5.722-6.479c-3.215,0-5.769,2.364-5.769,6.526C427.58,287.033,430.039,289.492,433.349,289.492z"/>
	<path fill="#3FAF90" d="M456.233,259.749c2.175,0,3.877,1.75,3.877,3.925c0,2.081-1.702,3.83-3.877,3.83
		c-2.128,0-3.878-1.75-3.878-3.83C452.355,261.498,454.105,259.749,456.233,259.749z M453.112,294.552v-23.265h6.289v23.265H453.112
		z"/>
	<path fill="#3FAF90" d="M470.654,286.891c0.143,1.844,1.514,3.547,4.256,3.547c2.081,0,3.074-1.088,3.074-2.317
		c0-1.04-0.71-1.891-2.507-2.27l-3.073-0.709c-4.492-0.993-6.525-3.688-6.525-6.951c0-4.161,3.688-7.613,8.7-7.613
		c6.62,0,8.843,4.208,9.127,6.715l-5.249,1.182c-0.189-1.371-1.183-3.121-3.83-3.121c-1.655,0-2.979,0.993-2.979,2.317
		c0,1.135,0.852,1.844,2.128,2.081l3.311,0.709c4.587,0.945,6.903,3.735,6.903,7.14c0,3.783-2.932,7.661-9.031,7.661
		c-6.999,0-9.41-4.54-9.694-7.188L470.654,286.891z"/>
	<path fill="#3FAF90" d="M494.722,282.919c0,4.209,2.743,6.573,5.959,6.573c3.215,0,4.823-2.128,5.343-3.925l5.533,1.844
		c-1.041,3.877-4.682,7.85-10.876,7.85c-6.857,0-12.248-5.202-12.248-12.342c0-7.188,5.297-12.342,12.059-12.342
		c6.336,0,9.931,3.925,10.923,7.85l-5.627,1.892c-0.567-1.939-2.033-3.925-5.154-3.925
		C497.418,276.394,494.722,278.71,494.722,282.919z"/>
	<path fill="#3FAF90" d="M539.974,282.919c0,7.141-5.249,12.342-12.2,12.342s-12.2-5.202-12.2-12.342
		c0-7.188,5.249-12.342,12.2-12.342S539.974,275.731,539.974,282.919z M533.685,282.919c0-4.397-2.837-6.62-5.911-6.62
		c-3.073,0-5.911,2.223-5.911,6.62c0,4.351,2.838,6.621,5.911,6.621C530.848,289.54,533.685,287.317,533.685,282.919z"/>
	<path fill="#3FAF90" d="M558.98,294.552h-6.289l-9.505-23.265h6.904l5.769,15.604l5.533-15.604h6.62L558.98,294.552z"/>
	<path fill="#3FAF90" d="M593.829,287.884c-1.183,4.02-4.87,7.377-10.593,7.377c-6.383,0-12.011-4.587-12.011-12.437
		c0-7.424,5.485-12.248,11.443-12.248c7.188,0,11.491,4.587,11.491,12.058c0,0.898-0.095,1.844-0.095,1.939h-16.645
		c0.142,3.074,2.742,5.296,5.863,5.296c2.932,0,4.539-1.466,5.296-3.546L593.829,287.884z M587.966,280.271
		c-0.095-2.317-1.608-4.587-5.202-4.587c-3.263,0-5.06,2.459-5.201,4.587H587.966z"/>
	<path fill="#3FAF90" d="M614.444,277.528c-0.71-0.142-1.324-0.189-1.892-0.189c-3.216,0-6.006,1.561-6.006,6.573v10.64h-6.289
		v-23.265h6.1v3.452c1.419-3.073,4.635-3.641,6.62-3.641c0.521,0,0.993,0.047,1.467,0.094V277.528z"/>
	<path fill="#3FAF90" d="M621.251,303.726l5.485-12.105l-9.883-20.333h7.046l6.194,13.619l5.722-13.619h6.715l-14.611,32.439
		H621.251z"/>
	<path fill="#3FAF90" d="M130.668,337.91l5.722-0.851c1.324-0.189,1.75-0.851,1.75-1.655c0-1.655-1.277-3.026-3.925-3.026
		c-2.743,0-4.256,1.75-4.445,3.783l-5.58-1.182c0.378-3.641,3.736-7.661,9.978-7.661c7.377,0,10.12,4.161,10.12,8.843v11.443
		c0,1.229,0.142,2.885,0.284,3.688h-5.769c-0.142-0.615-0.236-1.892-0.236-2.79c-1.183,1.844-3.405,3.452-6.857,3.452
		c-4.965,0-7.991-3.357-7.991-6.999C123.717,340.794,126.79,338.477,130.668,337.91z M138.139,341.882v-1.04l-5.249,0.804
		c-1.607,0.236-2.884,1.135-2.884,2.932c0,1.372,0.993,2.695,3.026,2.695C135.68,347.272,138.139,345.996,138.139,341.882z"/>
	<path fill="#3FAF90" d="M158.044,351.292h-6.289v-23.265h6.1v2.884c1.418-2.412,4.208-3.499,6.715-3.499
		c5.769,0,8.417,4.114,8.417,9.221v14.659h-6.289v-13.571c0-2.601-1.277-4.634-4.303-4.634c-2.743,0-4.351,2.128-4.351,4.823
		V351.292z"/>
	<path fill="#3FAF90" d="M202.681,347.083c0,1.561,0.094,3.263,0.189,4.208h-6.005c-0.095-0.473-0.236-1.608-0.236-2.695
		c-1.041,1.844-3.405,3.263-6.526,3.263c-6.62,0-11.349-5.202-11.349-12.247c0-6.81,4.587-12.153,11.16-12.153
		c4.02,0,5.911,1.655,6.573,2.884v-13.288h6.195V347.083z M190.859,346.232c3.215,0,5.722-2.459,5.722-6.667
		c0-4.162-2.506-6.479-5.722-6.479c-3.216,0-5.769,2.364-5.769,6.526C185.09,343.773,187.549,346.232,190.859,346.232z"/>
	<path fill="#3FAF90" d="M227.976,339.659c0,4.209,2.743,6.573,5.958,6.573c3.216,0,4.823-2.128,5.344-3.925l5.532,1.844
		c-1.04,3.877-4.681,7.85-10.876,7.85c-6.856,0-12.247-5.202-12.247-12.342c0-7.188,5.296-12.342,12.058-12.342
		c6.336,0,9.93,3.925,10.923,7.85l-5.627,1.892c-0.567-1.939-2.033-3.925-5.154-3.925
		C230.671,333.134,227.976,335.451,227.976,339.659z"/>
	<path fill="#3FAF90" d="M273.227,339.659c0,7.141-5.249,12.342-12.2,12.342s-12.2-5.202-12.2-12.342
		c0-7.188,5.249-12.342,12.2-12.342S273.227,332.472,273.227,339.659z M266.938,339.659c0-4.397-2.837-6.62-5.911-6.62
		c-3.073,0-5.911,2.223-5.911,6.62c0,4.351,2.837,6.621,5.911,6.621C264.101,346.28,266.938,344.057,266.938,339.659z"/>
	<path fill="#3FAF90" d="M279.325,351.292v-23.265h6.005v2.837c1.277-2.27,4.256-3.5,6.81-3.5c3.168,0,5.722,1.372,6.904,3.877
		c1.844-2.837,4.303-3.877,7.376-3.877c4.303,0,8.417,2.601,8.417,8.843v15.084h-6.1v-13.808c0-2.506-1.229-4.398-4.114-4.398
		c-2.695,0-4.303,2.081-4.303,4.587v13.619h-6.242v-13.808c0-2.506-1.277-4.398-4.114-4.398c-2.743,0-4.351,2.033-4.351,4.587
		v13.619H279.325z"/>
	<path fill="#3FAF90" d="M322.353,351.292v-23.265h6.005v2.837c1.277-2.27,4.256-3.5,6.81-3.5c3.168,0,5.722,1.372,6.904,3.877
		c1.844-2.837,4.303-3.877,7.376-3.877c4.303,0,8.417,2.601,8.417,8.843v15.084h-6.1v-13.808c0-2.506-1.229-4.398-4.114-4.398
		c-2.695,0-4.303,2.081-4.303,4.587v13.619h-6.242v-13.808c0-2.506-1.277-4.398-4.114-4.398c-2.743,0-4.351,2.033-4.351,4.587
		v13.619H322.353z"/>
	<path fill="#3FAF90" d="M380.417,348.786c-1.277,2.175-3.972,3.121-6.431,3.121c-5.627,0-8.842-4.114-8.842-9.174v-14.706h6.289
		v13.429c0,2.601,1.324,4.682,4.256,4.682c2.79,0,4.397-1.892,4.397-4.587v-13.524h6.289v19.057c0,1.797,0.143,3.405,0.236,4.208
		h-6.005C380.512,350.819,380.417,349.731,380.417,348.786z"/>
	<path fill="#3FAF90" d="M400.512,351.292h-6.289v-23.265h6.1v2.884c1.419-2.412,4.209-3.499,6.715-3.499
		c5.77,0,8.417,4.114,8.417,9.221v14.659h-6.289v-13.571c0-2.601-1.276-4.634-4.303-4.634c-2.743,0-4.351,2.128-4.351,4.823V351.292
		z"/>
	<path fill="#3FAF90" d="M426.092,316.489c2.175,0,3.877,1.75,3.877,3.925c0,2.081-1.702,3.83-3.877,3.83
		c-2.128,0-3.878-1.75-3.878-3.83C422.214,318.238,423.964,316.489,426.092,316.489z M422.971,351.292v-23.265h6.289v23.265H422.971
		z"/>
	<path fill="#3FAF90" d="M444.863,328.027h4.682v5.58h-4.682v9.741c0,2.034,0.946,2.695,2.743,2.695
		c0.756,0,1.607-0.094,1.938-0.189v5.202c-0.567,0.236-1.702,0.567-3.547,0.567c-4.539,0-7.377-2.695-7.377-7.188v-10.829h-4.208
		v-5.58h1.182c2.459,0,3.595-1.608,3.595-3.688v-3.263h5.674V328.027z"/>
	<path fill="#3FAF90" d="M457.251,360.466l5.485-12.105l-9.883-20.333h7.046l6.194,13.619l5.722-13.619h6.715l-14.611,32.439
		H457.251z"/>
	<path fill="#3FAF90" d="M504.062,328.027h4.682v5.58h-4.682v9.741c0,2.034,0.946,2.695,2.743,2.695
		c0.756,0,1.607-0.094,1.938-0.189v5.202c-0.567,0.236-1.702,0.567-3.547,0.567c-4.539,0-7.377-2.695-7.377-7.188v-10.829h-4.208
		v-5.58h1.182c2.459,0,3.595-1.608,3.595-3.688v-3.263h5.674V328.027z"/>
	<path fill="#3FAF90" d="M537.728,339.659c0,7.141-5.249,12.342-12.2,12.342s-12.2-5.202-12.2-12.342
		c0-7.188,5.249-12.342,12.2-12.342S537.728,332.472,537.728,339.659z M531.438,339.659c0-4.397-2.837-6.62-5.911-6.62
		c-3.073,0-5.911,2.223-5.911,6.62c0,4.351,2.838,6.621,5.911,6.621C528.602,346.28,531.438,344.057,531.438,339.659z"/>
	<path fill="#3FAF90" d="M564.395,328.027h4.682v5.58h-4.682v9.741c0,2.034,0.946,2.695,2.743,2.695
		c0.756,0,1.607-0.094,1.938-0.189v5.202c-0.567,0.236-1.702,0.567-3.547,0.567c-4.539,0-7.377-2.695-7.377-7.188v-10.829h-4.208
		v-5.58h1.182c2.459,0,3.595-1.608,3.595-3.688v-3.263h5.674V328.027z"/>
	<path fill="#3FAF90" d="M581.699,351.292h-6.289v-34.236h6.289v12.909c1.514-1.797,4.066-2.553,6.289-2.553
		c5.911,0,8.653,4.114,8.653,9.221v14.659h-6.289v-13.571c0-2.601-1.276-4.634-4.303-4.634c-2.648,0-4.209,1.986-4.351,4.54V351.292
		z"/>
	<path fill="#3FAF90" d="M625.013,344.625c-1.183,4.02-4.87,7.377-10.593,7.377c-6.383,0-12.011-4.587-12.011-12.437
		c0-7.424,5.485-12.248,11.443-12.248c7.188,0,11.491,4.587,11.491,12.058c0,0.898-0.095,1.844-0.095,1.939h-16.645
		c0.142,3.074,2.742,5.296,5.863,5.296c2.932,0,4.539-1.466,5.296-3.546L625.013,344.625z M619.149,337.011
		c-0.095-2.317-1.608-4.587-5.202-4.587c-3.263,0-5.06,2.459-5.201,4.587H619.149z"/>
	<path fill="#3FAF90" d="M127.854,408.032v-23.265h6.005v2.837c1.277-2.27,4.256-3.5,6.81-3.5c3.168,0,5.722,1.372,6.904,3.877
		c1.844-2.837,4.303-3.877,7.376-3.877c4.303,0,8.417,2.601,8.417,8.843v15.084h-6.1v-13.808c0-2.506-1.229-4.398-4.114-4.398
		c-2.695,0-4.303,2.081-4.303,4.587v13.619h-6.242v-13.808c0-2.506-1.277-4.398-4.114-4.398c-2.743,0-4.351,2.033-4.351,4.587
		v13.619H127.854z"/>
	<path fill="#3FAF90" d="M185.918,405.526c-1.277,2.175-3.972,3.12-6.431,3.12c-5.627,0-8.842-4.113-8.842-9.173v-14.706h6.289
		v13.429c0,2.601,1.324,4.682,4.256,4.682c2.79,0,4.397-1.892,4.397-4.587v-13.524h6.29v19.056c0,1.797,0.142,3.405,0.236,4.209
		h-6.005C186.013,407.56,185.918,406.472,185.918,405.526z"/>
	<path fill="#3FAF90" d="M203.128,400.372c0.142,1.844,1.513,3.546,4.256,3.546c2.081,0,3.073-1.087,3.073-2.316
		c0-1.041-0.709-1.892-2.506-2.27l-3.074-0.709c-4.492-0.993-6.526-3.688-6.526-6.951c0-4.161,3.688-7.613,8.701-7.613
		c6.62,0,8.842,4.208,9.126,6.715l-5.249,1.182c-0.189-1.371-1.182-3.121-3.83-3.121c-1.655,0-2.979,0.993-2.979,2.317
		c0,1.135,0.852,1.844,2.128,2.081l3.31,0.709c4.587,0.945,6.904,3.735,6.904,7.14c0,3.783-2.932,7.66-9.032,7.66
		c-6.998,0-9.41-4.539-9.694-7.188L203.128,400.372z"/>
	<path fill="#3FAF90" d="M243.51,401.365c-1.182,4.019-4.871,7.376-10.592,7.376c-6.384,0-12.011-4.587-12.011-12.436
		c0-7.424,5.485-12.248,11.443-12.248c7.188,0,11.491,4.587,11.491,12.058c0,0.898-0.095,1.844-0.095,1.939h-16.645
		c0.142,3.073,2.743,5.296,5.864,5.296c2.932,0,4.54-1.466,5.296-3.546L243.51,401.365z M237.646,393.751
		c-0.094-2.317-1.607-4.587-5.201-4.587c-3.263,0-5.06,2.459-5.202,4.587H237.646z"/>
	<path fill="#3FAF90" d="M264.976,405.526c-1.277,2.175-3.972,3.12-6.431,3.12c-5.627,0-8.842-4.113-8.842-9.173v-14.706h6.289
		v13.429c0,2.601,1.324,4.682,4.256,4.682c2.79,0,4.397-1.892,4.397-4.587v-13.524h6.29v19.056c0,1.797,0.142,3.405,0.236,4.209
		h-6.005C265.07,407.56,264.976,406.472,264.976,405.526z"/>
	<path fill="#3FAF90" d="M278.782,408.032v-23.265h6.005v2.837c1.277-2.27,4.256-3.5,6.81-3.5c3.168,0,5.722,1.372,6.904,3.877
		c1.844-2.837,4.303-3.877,7.376-3.877c4.303,0,8.417,2.601,8.417,8.843v15.084h-6.1v-13.808c0-2.506-1.229-4.398-4.114-4.398
		c-2.695,0-4.303,2.081-4.303,4.587v13.619h-6.242v-13.808c0-2.506-1.277-4.398-4.114-4.398c-2.743,0-4.351,2.033-4.351,4.587
		v13.619H278.782z"/>
	<path fill="#3FAF90" d="M355.476,401.365c-1.182,4.019-4.871,7.376-10.592,7.376c-6.384,0-12.011-4.587-12.011-12.436
		c0-7.424,5.485-12.248,11.443-12.248c7.188,0,11.491,4.587,11.491,12.058c0,0.898-0.095,1.844-0.095,1.939h-16.645
		c0.142,3.073,2.743,5.296,5.864,5.296c2.932,0,4.54-1.466,5.296-3.546L355.476,401.365z M349.612,393.751
		c-0.094-2.317-1.607-4.587-5.201-4.587c-3.263,0-5.06,2.459-5.202,4.587H349.612z"/>
	<path fill="#3FAF90" d="M367.39,396.353l-8.275-11.585h7.471c0.804,1.277,3.831,5.627,4.634,6.904l4.587-6.904h7.14l-8.133,11.396
		l8.417,11.869h-7.376l-4.871-7.14c-0.851,1.277-3.972,5.864-4.776,7.14h-7.093L367.39,396.353z"/>
	<path fill="#3FAF90" d="M388.194,417.017v-32.25h6.1v2.837c1.041-1.797,3.642-3.357,7.141-3.357c6.81,0,10.734,5.201,10.734,12.105
		c0,7.046-4.397,12.247-10.971,12.247c-3.216,0-5.58-1.276-6.715-2.837v11.254H388.194z M400.205,389.874
		c-3.216,0-5.816,2.412-5.816,6.525c0,4.114,2.601,6.573,5.816,6.573s5.77-2.412,5.77-6.573
		C405.975,392.286,403.421,389.874,400.205,389.874z"/>
	<path fill="#3FAF90" d="M439.12,401.365c-1.183,4.019-4.87,7.376-10.593,7.376c-6.383,0-12.011-4.587-12.011-12.436
		c0-7.424,5.485-12.248,11.443-12.248c7.188,0,11.491,4.587,11.491,12.058c0,0.898-0.095,1.844-0.095,1.939h-16.645
		c0.142,3.073,2.742,5.296,5.863,5.296c2.932,0,4.539-1.466,5.296-3.546L439.12,401.365z M433.257,393.751
		c-0.095-2.317-1.608-4.587-5.202-4.587c-3.263,0-5.06,2.459-5.201,4.587H433.257z"/>
	<path fill="#3FAF90" d="M459.735,391.009c-0.71-0.142-1.324-0.189-1.892-0.189c-3.216,0-6.006,1.561-6.006,6.573v10.64h-6.289
		v-23.265h6.1v3.452c1.419-3.073,4.635-3.641,6.62-3.641c0.521,0,0.993,0.047,1.467,0.094V391.009z"/>
	<path fill="#3FAF90" d="M468.292,373.229c2.175,0,3.877,1.75,3.877,3.925c0,2.081-1.702,3.83-3.877,3.83
		c-2.128,0-3.878-1.75-3.878-3.83C464.414,374.979,466.164,373.229,468.292,373.229z M465.171,408.032v-23.265h6.289v23.265H465.171
		z"/>
	<path fill="#3FAF90" d="M500.162,401.365c-1.183,4.019-4.87,7.376-10.592,7.376c-6.384,0-12.012-4.587-12.012-12.436
		c0-7.424,5.485-12.248,11.443-12.248c7.188,0,11.491,4.587,11.491,12.058c0,0.898-0.095,1.844-0.095,1.939h-16.645
		c0.142,3.073,2.742,5.296,5.863,5.296c2.932,0,4.539-1.466,5.296-3.546L500.162,401.365z M494.299,393.751
		c-0.095-2.317-1.608-4.587-5.202-4.587c-3.263,0-5.06,2.459-5.201,4.587H494.299z"/>
	<path fill="#3FAF90" d="M512.88,408.032h-6.289v-23.265h6.1v2.884c1.419-2.412,4.209-3.499,6.715-3.499
		c5.77,0,8.417,4.114,8.417,9.221v14.659h-6.289v-13.571c0-2.601-1.276-4.634-4.303-4.634c-2.743,0-4.351,2.128-4.351,4.823V408.032
		z"/>
	<path fill="#3FAF90" d="M539.879,396.399c0,4.209,2.743,6.573,5.959,6.573c3.215,0,4.823-2.128,5.343-3.925l5.533,1.844
		c-1.041,3.877-4.682,7.849-10.876,7.849c-6.857,0-12.248-5.201-12.248-12.342c0-7.188,5.297-12.342,12.059-12.342
		c6.336,0,9.931,3.925,10.923,7.85l-5.627,1.892c-0.567-1.939-2.033-3.925-5.154-3.925
		C542.574,389.874,539.879,392.191,539.879,396.399z"/>
	<path fill="#3FAF90" d="M583.333,401.365c-1.183,4.019-4.87,7.376-10.593,7.376c-6.383,0-12.011-4.587-12.011-12.436
		c0-7.424,5.485-12.248,11.443-12.248c7.188,0,11.491,4.587,11.491,12.058c0,0.898-0.095,1.844-0.095,1.939h-16.645
		c0.142,3.073,2.742,5.296,5.863,5.296c2.932,0,4.539-1.466,5.296-3.546L583.333,401.365z M577.47,393.751
		c-0.095-2.317-1.608-4.587-5.202-4.587c-3.263,0-5.06,2.459-5.201,4.587H577.47z"/>
	<path fill="#3FAF90" d="M595.625,397.818c-0.095-0.615-0.188-1.229-0.188-1.939c0-2.506,1.04-4.823,3.735-6.856l2.27-1.703
		c1.419-1.04,2.033-2.317,2.033-3.735c0-2.175-1.561-4.256-4.729-4.256c-3.357,0-4.823,2.695-4.823,5.343
		c0,0.567,0.048,1.088,0.189,1.513l-5.958-0.236c-0.189-0.662-0.236-1.418-0.236-2.128c0-5.107,3.83-10.025,10.828-10.025
		c7.33,0,11.16,4.634,11.16,9.41c0,3.736-1.892,6.384-4.682,8.37l-1.938,1.372c-1.655,1.182-2.554,2.648-2.554,4.587v0.284H595.625z
		 M598.273,400.892c2.08,0,3.783,1.702,3.783,3.783s-1.703,3.735-3.783,3.735c-2.081,0-3.735-1.654-3.735-3.735
		S596.192,400.892,598.273,400.892z"/>
</g>
<g>
	<path fill-rule="evenodd" clip-rule="evenodd" fill="#3FAF90" d="M372.201,113.369c2.73,1.083,5.311,2.097,7.883,3.132
		c1.529,0.615,3.074,1.203,4.562,1.911c5.821,2.771,11.593,5.646,17.442,8.359c3.215,1.491,6.563,2.692,9.817,4.102
		c2.794,1.209,3.839,3.961,2.543,6.778c-0.538,1.168-1.29,2.273-2.118,3.262c-0.818,0.978-1.97,1.111-3.179,0.631
		c-1.612-0.642-3.252-1.218-4.854-1.884c-8.249-3.431-16.468-6.93-24.738-10.302c-3.827-1.56-7.759-2.857-11.622-4.333
		c-1.335-0.51-2.046-0.086-2.854,1.046c-3.985,5.594-9.327,9.225-16.278,9.526c-3.41,0.148-6.887,0.051-10.321-0.068
		c-5.741-0.199-10.815-2.341-14.816-6.551c-1.035-1.09-1.871-2.567-2.288-4.015c-1.875-6.506-1.622-13.007,0.115-19.559
		c0.835-3.153,1.869-6.156,3.501-8.959c1.02-1.751,2.537-3.136,3.169-5.224c0.322-1.069,1.743-1.965,2.859-2.61
		c6.787-3.923,14.121-4.837,21.789-3.745c0.563,0.08,1.231,0.233,1.699,0.02c1.598-0.731,3.058-0.32,4.56,0.249
		c1.776,0.675,3.576,1.292,5.366,1.935c5.186,1.865,7.837,5.881,9.1,10.962c0.614,2.481,1.142,5.022,1.322,7.562
		c0.148,2.103-0.006,4.309-1.478,6.11C373.023,112.147,372.721,112.633,372.201,113.369z M363.151,104.06
		c0.338-4.437-1.393-8.147-4.151-11.568c-2.073-2.572-4.754-4-7.814-4.917c-4.127-1.238-8.199-0.437-12.25,0.396
		c-1.168,0.24-2.411,0.522-2.93,1.979c-0.178,0.499-0.988,0.782-1.527,1.14c-0.816,0.544-1.752,0.956-2.45,1.621
		c-2.104,2.01-3.776,4.302-5.044,6.987c-1.231,2.601-1.626,5.361-2.341,8.063c-0.425,1.607-0.708,3.17,0.395,4.749
		c0.531,0.761,0.703,1.875,0.763,2.846c0.287,4.602,2.876,7.971,6.245,10.567c2.644,2.038,5.757,3.568,9.409,3.272
		c1.375-0.112,2.835,0.022,4.168,0.376c1.733,0.459,3.096,0.137,4.254-1.167c2.191-2.47,4.519-4.839,6.51-7.463
		c1.821-2.404,3.77-4.84,4.04-8.075c0.034-0.387,0.247-0.827,0.514-1.115C362.965,109.568,363.293,106.909,363.151,104.06z
		 M369.062,121.222c0.377,0.204,0.78,0.481,1.225,0.655c8.16,3.197,16.325,6.381,24.491,9.57c2.616,1.022,5.24,2.032,7.846,3.084
		c1.994,0.806,3.962,1.675,5.943,2.508c0.381,0.16,0.774,0.29,1.165,0.427c0.811,0.286,1.612,0.181,1.801-0.703
		c0.104-0.495-0.214-1.409-0.615-1.628c-2.534-1.383-5.111-2.701-7.74-3.89c-2.935-1.327-6.056-2.275-8.894-3.772
		c-7.472-3.941-15.043-7.62-23.074-10.284c-0.747-0.248-1.52-0.417-2.147-0.587C369.062,118.25,369.062,119.673,369.062,121.222z
		 M369.857,112.831c0.47-1.517,0.966-2.881,1.314-4.282c0.67-2.694-0.642-5.177-0.952-7.769c-0.377-3.146-2.017-5.715-4.022-8.062
		c-0.548-0.641-1.135-1.385-2.615-1.236c2.519,2.979,3.188,6.275,3.7,9.739c0.531,3.597-0.49,6.932-1.224,10.375
		C367.425,112.039,368.499,112.389,369.857,112.831z M350.953,131.67c4.594,0.326,10.948-4.23,11.975-8.286
		c-2.912-1.985-3.059-1.922-5.214,0.614c-1.606,1.888-3.369,3.641-5.034,5.479C352.103,130.114,351.613,130.828,350.953,131.67z
		 M364.135,115.092c-0.719,1.173-1.324,2.163-2.068,3.378c1.272,0.562,2.236,0.989,2.93,1.296c0.798-1.385,1.398-2.422,2.062-3.573
		C366.275,115.898,365.384,115.562,364.135,115.092z"/>
	<path fill-rule="evenodd" clip-rule="evenodd" fill="#3FAF90" d="M328.283,108.12c0.895-3.104,1.553-6.691,4.692-9.304
		c2.709-2.256,5.637-4.001,8.863-5.286c0.686-0.273,1.6-0.208,2.347-0.033c0.848,0.2,1.564,0.905,1.243,1.82
		c-0.2,0.567-0.907,1.127-1.512,1.344c-1.229,0.441-2.592,0.516-3.813,0.975c-4.775,1.795-7.942,5.42-7.364,10.877
		c0.18,1.686-0.352,2.491-1.634,2.892C329.297,111.972,328.179,110.861,328.283,108.12z"/>
</g>
</svg>
