<?xml version="1.0" encoding="utf-8"?>
<!-- Generator: Adobe Illustrator 16.0.0, SVG Export Plug-In . SVG Version: 6.00 Build 0)  -->
<!DOCTYPE svg PUBLIC "-//W3C//DTD SVG 1.1//EN" "http://www.w3.org/Graphics/SVG/1.1/DTD/svg11.dtd">
<svg version="1.1" id="Layer_1" xmlns="http://www.w3.org/2000/svg" xmlns:xlink="http://www.w3.org/1999/xlink" x="0px" y="0px"
	 width="240px" height="160px" viewBox="0 0 240 160" enable-background="new 0 0 240 160" xml:space="preserve">
<path fill="#FFDCCA" d="M139.955,29.691c0.023,0.432-0.133,0.547-0.547,0.547c-2.742-0.015-5.471-0.008-8.213-0.008h-2.996h-0.646
	c0-0.985-0.008-1.886,0.014-2.786c0-0.089,0.146-0.216,0.254-0.257c0.111-0.052,0.254-0.018,0.389-0.018
	c3.699-0.005,7.402-0.005,11.107,0c0.632,0,0.632,0,0.632,0.64C139.947,28.434,139.924,29.062,139.955,29.691 M128.697,54.728
	c-2.443-0.938-4.191-2.704-5.174-5.126c-1.566-3.877-1.492-7.768,0.258-11.563c1.412-3.068,3.939-4.762,7.215-5.363
	c1.918-0.351,3.84-0.361,5.752,0.069c3.127,0.696,5.275,2.564,6.504,5.495c0.932,2.222,1.234,4.55,1.09,6.946
	c-0.008,0.108-0.029,0.216-0.057,0.376h-15.631c0.141,0.669,0.199,1.272,0.395,1.834c0.859,2.477,3.035,3.69,5.541,3.501
	c1.221-0.094,2.352-0.421,3.223-1.333c0.23-0.245,0.453-0.517,0.598-0.818c0.154-0.319,0.342-0.428,0.697-0.424
	c1.594,0.02,3.188,0.02,4.783,0c0.404-0.004,0.516,0.104,0.488,0.525c-0.193,2.786-1.646,4.68-4.156,5.721
	C136.422,56.153,132.545,56.194,128.697,54.728 M95.748,54.516c-0.005-0.083-0.007-0.186-0.007-0.32V25.774
	c0-0.134,0.002-0.238,0.007-0.321c0.057-0.095,0.112-0.19,0.168-0.285c0.094-0.027,0.235-0.028,0.454-0.03
	c3.091-0.019,6.183-0.04,9.277-0.06c2.435-0.015,4.867-0.086,7.295-0.037c2.355,0.045,4.379,0.894,5.764,2.895
	c1.064,1.537,1.353,3.289,1.197,5.116c-0.215,2.528-1.428,4.423-3.719,5.591c-0.021,0.011-0.039,0.045-0.064,0.086
	c2.101,0.178,3.445,1.383,4.263,3.229c0.896,2.035,1.201,4.175,0.775,6.369c-0.643,3.285-2.75,5.224-5.883,6.098
	c-0.889,0.253-1.838,0.383-2.76,0.387c-5.379,0.034-10.76,0.019-16.146,0.019c-0.221,0-0.362-0.002-0.454-0.029
	C95.859,54.705,95.805,54.61,95.748,54.516 M120.352-0.017c-22.092,0-40.002,17.909-40.002,40c0,22.091,17.91,40,40.002,40
	c22.089,0,39.998-17.909,39.998-40C160.35,17.892,142.441-0.017,120.352-0.017"/>
<path fill="#FFDCCA" d="M102.559,41.791h0.475h7.588c2.662,0.005,4.246,1.805,3.917,4.465c-0.251,2.013-1.263,3.106-3.167,3.386
	c-0.36,0.052-0.737,0.004-1.11,0c-2.449-0.02-4.894-0.034-7.344-0.053c-0.097,0-0.193-0.012-0.359-0.022V41.791z"/>
<path fill="#FFDCCA" d="M102.537,37.454v-7.188h0.574c2.158,0,4.315,0.04,6.473-0.008c2.285-0.056,3.855,1.414,3.594,4.1
	c-0.137,1.458-0.789,2.53-2.254,2.98c-0.215,0.062-0.444,0.111-0.662,0.111C107.717,37.458,105.172,37.454,102.537,37.454"/>
<path fill="#FFDCCA" d="M128.967,41.453c0.566-2.731,2.738-4.521,5.176-4.289c2.168,0.2,4.326,2.287,4.4,4.289H128.967z"/>
<path fill="#FFDCCA" d="M30.189,34.754c-1.639-0.015-3.272-0.003-4.969-0.003c-0.019-0.351-0.045-0.622-0.045-0.894
	c-0.004-1.569,0.024-3.136-0.019-4.702c-0.012-0.584,0.158-0.882,0.711-1.149c3.414-1.648,6.177-4.003,7.914-7.444
	c0.855-1.693,1.279-3.497,1.367-5.387c0.008-0.178,0.033-0.36,0.056-0.651c2,0,3.936,0.004,5.872,0
	c0.523-0.003,0.427,0.376,0.437,0.686c0.004,2.213,0.01,4.427,0.01,6.644c0.002,1.428,0,2.857,0,4.289
	c0,0.915,0.002,0.919,0.889,0.923c3.597,0.003,7.195,0.022,10.794-0.011c0.67-0.004,0.868,0.2,0.856,0.859
	c-0.037,1.982-0.029,3.969,0.012,5.947c0.015,0.688-0.161,0.915-0.883,0.908c-3.572-0.037-7.151-0.015-10.729-0.015h-0.884
	c-0.018,0.294-0.053,0.536-0.053,0.785c-0.002,4.636-0.008,9.271,0.006,13.905c0,0.577,0.039,1.161,0.154,1.72
	c0.561,2.737,2.439,4.263,5.295,4.314c2.262,0.048,4.375-0.573,6.465-1.343c0.556-0.204,1.113-0.431,1.767-0.685
	c0.028,0.275,0.073,0.495,0.073,0.707c0.007,2.075-0.01,4.151,0.019,6.228c0.008,0.528-0.154,0.781-0.676,0.919
	c-4.263,1.108-8.58,1.785-12.998,1.547c-2.129-0.115-4.211-0.513-6.105-1.573c-2.723-1.518-4.082-3.888-4.108-6.968
	c-0.039-6.112-0.005-12.225-0.019-18.337C31.396,34.501,31.496,34.769,30.189,34.754 M69.309,67.594
	c6.836-7.177,11.043-16.882,11.043-27.576c0-22.09-17.912-39.999-40.002-39.999c-22.088,0-39.998,17.909-39.998,39.999
	c0,10.634,4.158,20.291,10.928,27.456c0.437,0.62,0.976,1.158,1.603,1.604c7.166,6.775,16.828,10.938,27.467,10.938
	c10.572,0,20.178-4.108,27.33-10.806C68.311,68.77,68.855,68.227,69.309,67.594"/>
<path fill="#FFCBBB" d="M139.779,109.691c0.021,0.432-0.133,0.547-0.547,0.547c-2.742-0.016-5.471-0.008-8.213-0.008h-2.996h-0.646
	c0-0.985-0.008-1.888,0.014-2.787c0-0.088,0.146-0.215,0.254-0.256c0.111-0.054,0.252-0.02,0.389-0.02
	c3.697-0.005,7.402-0.005,11.107,0c0.631,0,0.631,0,0.631,0.641C139.771,108.434,139.748,109.062,139.779,109.691 M128.521,134.729
	c-2.443-0.938-4.191-2.705-5.174-5.127c-1.566-3.877-1.492-7.768,0.258-11.562c1.412-3.067,3.938-4.763,7.215-5.363
	c1.918-0.351,3.84-0.36,5.752,0.069c3.127,0.695,5.275,2.562,6.504,5.495c0.932,2.222,1.234,4.55,1.09,6.944
	c-0.008,0.108-0.029,0.217-0.057,0.377h-15.631c0.141,0.668,0.197,1.271,0.395,1.834c0.859,2.478,3.035,3.689,5.541,3.5
	c1.221-0.094,2.352-0.42,3.223-1.332c0.23-0.246,0.453-0.518,0.596-0.817c0.156-0.319,0.344-0.429,0.699-0.424
	c1.592,0.02,3.188,0.02,4.783,0c0.404-0.005,0.514,0.104,0.488,0.524c-0.193,2.785-1.646,4.68-4.156,5.721
	C136.246,136.152,132.369,136.193,128.521,134.729 M95.572,134.516c-0.005-0.082-0.007-0.186-0.007-0.32v-28.422
	c0-0.133,0.002-0.236,0.007-0.319c0.057-0.097,0.112-0.188,0.168-0.286c0.094-0.025,0.235-0.025,0.454-0.027
	c3.091-0.021,6.183-0.041,9.277-0.062c2.435-0.017,4.867-0.086,7.295-0.037c2.355,0.045,4.379,0.896,5.764,2.896
	c1.064,1.537,1.353,3.289,1.197,5.115c-0.215,2.528-1.428,4.424-3.719,5.592c-0.021,0.012-0.039,0.045-0.064,0.086
	c2.101,0.179,3.445,1.383,4.263,3.229c0.896,2.035,1.201,4.175,0.775,6.369c-0.645,3.283-2.75,5.224-5.883,6.098
	c-0.889,0.254-1.838,0.385-2.76,0.389c-5.379,0.033-10.76,0.019-16.146,0.019c-0.221,0-0.362-0.002-0.454-0.028
	C95.684,134.705,95.629,134.609,95.572,134.516 M120.176,79.983c-22.092,0-40.002,17.91-40.002,40c0,22.093,17.91,40,40.002,40
	c22.09,0,39.998-17.907,39.998-40C160.174,97.893,142.266,79.983,120.176,79.983"/>
<path fill="#FFCBBB" d="M102.383,121.791h0.475h7.588c2.662,0.005,4.246,1.805,3.917,4.465c-0.251,2.014-1.263,3.105-3.167,3.387
	c-0.36,0.051-0.737,0.004-1.11,0c-2.449-0.021-4.894-0.035-7.344-0.054c-0.097,0-0.193-0.012-0.359-0.022V121.791z"/>
<path fill="#FFCBBB" d="M102.361,117.454v-7.188h0.574c2.158,0,4.315,0.041,6.473-0.008c2.285-0.056,3.855,1.414,3.594,4.1
	c-0.137,1.459-0.789,2.531-2.254,2.98c-0.215,0.062-0.444,0.111-0.662,0.111C107.542,117.458,104.996,117.454,102.361,117.454"/>
<path fill="#FFCBBB" d="M128.791,121.453c0.566-2.73,2.738-4.521,5.176-4.289c2.168,0.2,4.326,2.287,4.4,4.289H128.791z"/>
<path fill="#FFCBBB" d="M30.014,114.754c-1.639-0.015-3.272-0.003-4.969-0.003C25.026,114.4,25,114.129,25,113.857
	c-0.004-1.569,0.024-3.138-0.019-4.702c-0.012-0.585,0.158-0.882,0.711-1.149c3.414-1.648,6.177-4.003,7.914-7.443
	c0.855-1.692,1.279-3.498,1.367-5.388c0.008-0.178,0.033-0.36,0.056-0.651c2,0,3.936,0.004,5.872,0
	c0.523-0.002,0.427,0.377,0.437,0.688c0.004,2.213,0.01,4.428,0.01,6.645c0.002,1.429,0,2.856,0,4.289
	c0,0.916,0.002,0.92,0.889,0.924c3.597,0.002,7.195,0.021,10.794-0.012c0.67-0.005,0.868,0.199,0.856,0.858
	c-0.037,1.981-0.029,3.969,0.012,5.946c0.015,0.688-0.161,0.914-0.883,0.908c-3.572-0.037-7.151-0.016-10.729-0.016h-0.884
	c-0.018,0.294-0.053,0.536-0.053,0.785c-0.002,4.636-0.008,9.271,0.006,13.904c0,0.578,0.039,1.162,0.154,1.721
	c0.561,2.736,2.439,4.263,5.295,4.314c2.262,0.047,4.375-0.574,6.465-1.345c0.556-0.202,1.113-0.431,1.767-0.685
	c0.028,0.273,0.073,0.494,0.073,0.707c0.007,2.074-0.01,4.15,0.019,6.228c0.008,0.528-0.154,0.781-0.676,0.919
	c-4.263,1.108-8.58,1.785-12.998,1.549c-2.129-0.115-4.211-0.515-6.105-1.574c-2.723-1.519-4.082-3.887-4.108-6.967
	c-0.039-6.112-0.005-12.227-0.019-18.338C31.221,114.501,31.32,114.77,30.014,114.754 M69.133,147.594
	c6.836-7.177,11.043-16.882,11.043-27.576c0-22.09-17.912-39.999-40.002-39.999c-22.088,0-39.998,17.909-39.998,39.999
	c0,10.635,4.158,20.291,10.928,27.457c0.437,0.619,0.976,1.157,1.603,1.604c7.166,6.774,16.828,10.938,27.467,10.938
	c10.572,0,20.178-4.107,27.33-10.807C68.135,148.77,68.68,148.227,69.133,147.594"/>
<path fill="#FFDCCA" d="M189.777,59.431h-8.094V33.204h8.094V59.431z M189.051,28.267c-0.918,0.918-2.029,1.374-3.318,1.374
	c-1.297,0-2.398-0.456-3.316-1.374c-0.918-0.919-1.379-2.023-1.379-3.319c0-1.293,0.461-2.399,1.379-3.318
	c0.918-0.918,2.021-1.377,3.316-1.377c1.289,0,2.4,0.459,3.318,1.377c0.92,0.919,1.379,2.025,1.379,3.318
	C190.43,26.244,189.971,27.348,189.051,28.267 M220.861,59.135c-0.09,0.098-0.178,0.2-0.271,0.296h-7.826V46.586
	c0-0.755-0.021-1.537-0.082-2.345c-0.051-0.811-0.215-1.56-0.482-2.24c-0.271-0.683-0.688-1.241-1.24-1.675
	c-0.559-0.43-1.355-0.648-2.398-0.648c-1.045,0-1.891,0.188-2.537,0.571c-0.646,0.374-1.146,0.878-1.486,1.508
	c-0.34,0.629-0.562,1.344-0.674,2.133c-0.104,0.793-0.156,1.618-0.156,2.485v13.056h-8.1V33.204h7.773v3.567h0.105
	c0.248-0.508,0.609-1.011,1.076-1.515s1.031-0.955,1.676-1.349c0.646-0.396,1.383-0.723,2.217-0.971
	c0.82-0.251,1.727-0.381,2.693-0.381c2.055,0,3.705,0.314,4.963,0.944c1.262,0.63,2.238,1.504,2.941,2.618
	c0.701,1.111,1.178,2.431,1.43,3.941c0.252,1.508,0.379,3.146,0.379,4.911V59.135L220.861,59.135z M200,0.017
	c-21.994,0-39.824,17.831-39.824,39.824c0,21.994,17.83,39.825,39.824,39.825s39.824-17.831,39.824-39.825
	C239.824,17.848,221.994,0.017,200,0.017"/>
<path fill="#FFCBBB" d="M189.777,139.607h-8.094V113.38h8.094V139.607z M189.051,108.443c-0.918,0.918-2.029,1.375-3.318,1.375
	c-1.297,0-2.398-0.457-3.316-1.375s-1.379-2.022-1.379-3.318c0-1.293,0.461-2.398,1.379-3.318c0.918-0.918,2.021-1.377,3.316-1.377
	c1.289,0,2.4,0.459,3.318,1.377c0.92,0.92,1.379,2.025,1.379,3.318C190.43,106.42,189.971,107.525,189.051,108.443 M220.861,139.312
	c-0.09,0.098-0.178,0.197-0.271,0.295h-7.826v-12.847c0-0.755-0.021-1.534-0.082-2.344c-0.051-0.812-0.215-1.562-0.482-2.241
	c-0.271-0.682-0.688-1.238-1.24-1.674c-0.559-0.43-1.355-0.646-2.398-0.646c-1.045,0-1.891,0.188-2.537,0.568
	c-0.646,0.374-1.146,0.878-1.486,1.51c-0.34,0.629-0.562,1.344-0.674,2.133c-0.104,0.793-0.156,1.619-0.156,2.483v13.058h-8.1
	V113.38h7.773v3.567h0.105c0.248-0.508,0.609-1.012,1.076-1.516c0.467-0.506,1.031-0.955,1.676-1.35
	c0.646-0.396,1.383-0.725,2.217-0.973c0.82-0.25,1.727-0.381,2.693-0.381c2.055,0,3.705,0.314,4.963,0.943
	c1.262,0.631,2.238,1.506,2.941,2.619c0.701,1.111,1.178,2.432,1.43,3.941c0.252,1.508,0.379,3.145,0.379,4.91V139.312
	L220.861,139.312z M200,80.194c-21.994,0-39.824,17.832-39.824,39.824c0,21.993,17.83,39.824,39.824,39.824
	s39.824-17.831,39.824-39.824C239.824,98.025,221.994,80.194,200,80.194"/>
</svg>
