<?xml version="1.0" encoding="utf-8"?>
<!-- Generator: Adobe Illustrator 16.0.0, SVG Export Plug-In . SVG Version: 6.00 Build 0)  -->
<!DOCTYPE svg PUBLIC "-//W3C//DTD SVG 1.1//EN" "http://www.w3.org/Graphics/SVG/1.1/DTD/svg11.dtd">
<svg version="1.1" id="Layer_1" xmlns="http://www.w3.org/2000/svg" xmlns:xlink="http://www.w3.org/1999/xlink" x="0px" y="0px"
	 width="128px" height="128px" viewBox="-43.582 -43.379 128 128" enable-background="new -43.582 -43.379 128 128"
	 xml:space="preserve">
<g id="Layer_1_1_">
</g>
<g id="Layer_2">
</g>
<g id="Layer_3" display="none">
	<g display="inline">
		<g>
			<defs>
				<rect id="SVGID_1_" x="413.048" y="-254.715" width="276.021" height="191.738"/>
			</defs>
			<clipPath id="SVGID_2_">
				<use xlink:href="#SVGID_1_"  overflow="visible"/>
			</clipPath>
			<g clip-path="url(#SVGID_2_)">
				<path fill="none" stroke="#BEA0CC" stroke-width="3" stroke-miterlimit="10" d="M578.388-152.773
					c2.412,2.925,1.494,6.93,1.521,10.655 M564.685-158.103c-0.348,2.881-3.163,5.162-5.118,7.821
					c1.473-0.016,3.645,1.443,5.037,1.485c-0.759,2.263-2.085,4.625-3.646,6.565c1.365-0.135,3.037,0.337,4.406,0.229
					c-0.523,0.546-1.56,3.67-2.16,4.339c1.545,0.414,3.896,2.553,5.267,2.969c-1.183,0.824-2.484,1.938-3.785,2.473 M536.521-86.55
					c2.394,6.696-0.51,14.882,1.657,21.978c2.71,0.137,5.495,0.064,8.237,0.097 M519.776-84.267
					c2.174,5.404,0.606,12.989,0.823,18.915c2.023,0.146,4.797,0.617,6.787,0.115 M529.671-131.461
					c-10.629,10.455-25.004,31.864-26.555,47.077c15.844,0.534,36.653-1.946,52.33-5.332c1.873-15.407-10.613-30.235-15.119-44.028
					 M493.134-155.818c0,7.519,0.744,14.596,0.867,22.002c19.594,2.872,40.224,1.595,60.191,1.595
					c8.889,0,11.885,0.171,18.864-5.329c4.394-3.458,10.521-5.792,14.242-9.646c-2.744-3.419-13.856-6.903-18.711-8.066
					c-9.408-2.254-20.801-0.555-30.617-0.555h-44.078"/>
				<path fill="none" stroke="#BEA0CC" stroke-width="3" stroke-miterlimit="10" d="M541.468-127.522
					c3.863,3.359,7.522,7.745,11.285,12.123c4.088,4.756,7.205,5.86,11.594,5.85"/>
				<path fill="none" stroke="#BEA0CC" stroke-width="3" stroke-miterlimit="10" d="M529.526-129.582
					c-1.414,0.396-2.357,0.869-3.355,2.593c-1.945,3.356-3.959,6.624-4.746,11.983c-0.625,4.273-1.534,8.026-2.018,12.505
					c-0.399,3.688-0.5,7.136-0.576,11.094"/>
			</g>
		</g>
	</g>
</g>
<g>
	<defs>
		<rect id="SVGID_3_" x="-40" y="-41.759" width="120.837" height="124.759"/>
	</defs>
	<clipPath id="SVGID_4_">
		<use xlink:href="#SVGID_3_"  overflow="visible"/>
	</clipPath>
	
		<path clip-path="url(#SVGID_4_)" fill="none" stroke="#231F20" stroke-width="6.563" stroke-linecap="round" stroke-linejoin="round" d="
		M-34.646-38.477c-2.538,2.584-2.031,3.101-2.031,11.887c0,8.787,0,12.404,2.031,14.989c2.031,2.584,76.155,3.101,81.739,1.55
		c5.586-1.55,30.463-15.505,30.463-17.572c0-2.068-23.862-10.854-25.893-10.854H-34.646z"/>
</g>
<path fill="none" stroke="#231F20" stroke-width="6.563" stroke-linecap="round" stroke-linejoin="round" d="M61.646,20.029"/>
<g>
	<defs>
		<rect id="SVGID_5_" x="-40" y="-41.759" width="120.837" height="124.759"/>
	</defs>
	<clipPath id="SVGID_6_">
		<use xlink:href="#SVGID_5_"  overflow="visible"/>
	</clipPath>
	
		<path clip-path="url(#SVGID_6_)" fill="none" stroke="#231F20" stroke-width="6.563" stroke-linecap="round" stroke-linejoin="round" d="
		M5.809-5.528c0,0-25.75,47.359-26.993,53.114c-0.611,2.824-2.894,5.496-2.76,10.17c0.061,2.114,65.387-0.565,65.115-3.955
		C40.405,44.212,25.243-5.528,25.243-5.528"/>
	
		<path clip-path="url(#SVGID_6_)" fill="none" stroke="#231F20" stroke-width="6.563" stroke-linecap="round" stroke-linejoin="round" d="
		M2.86,1.137C2.841,3.27,2.813,13.708,2.841,22.349c0.028,8.642,0.076,14.506,0.076,14.506"/>
	
		<path clip-path="url(#SVGID_6_)" fill="none" stroke="#231F20" stroke-width="6.563" stroke-linecap="round" stroke-linejoin="round" d="
		M27.964,1.137c0,0,8.153,11.736,17.266,15.022c9.111,3.286,6.234,2.108,7.193,2.108"/>
	
		<polyline clip-path="url(#SVGID_6_)" fill="none" stroke="#231F20" stroke-width="6.563" stroke-linecap="round" stroke-linejoin="round" points="
		1.763,60.818 2.042,79.719 8.67,79.581 	"/>
	
		<polyline clip-path="url(#SVGID_6_)" fill="none" stroke="#231F20" stroke-width="6.563" stroke-linecap="round" stroke-linejoin="round" points="
		22.066,60.447 22.345,79.348 28.972,79.211 	"/>
	
		<polyline clip-path="url(#SVGID_6_)" fill="none" stroke="#231F20" stroke-width="6.563" stroke-linecap="round" stroke-linejoin="round" points="
		48.05,-38.477 43.901,-34.052 47.786,-28.154 42.112,-24.097 46.464,-20.042 41.476,-16.355 44.763,-11.072 	"/>
	
		<line clip-path="url(#SVGID_6_)" fill="none" stroke="#231F20" stroke-width="6.563" stroke-linecap="round" stroke-linejoin="round" x1="69.815" y1="-29.426" x2="69.163" y2="-22.79"/>
</g>
</svg>
