<?xml version="1.0" encoding="utf-8"?>
<!-- Generator: Adobe Illustrator 16.0.0, SVG Export Plug-In . SVG Version: 6.00 Build 0)  -->
<!DOCTYPE svg PUBLIC "-//W3C//DTD SVG 1.1//EN" "http://www.w3.org/Graphics/SVG/1.1/DTD/svg11.dtd">
<svg version="1.1" id="Layer_1" xmlns="http://www.w3.org/2000/svg" xmlns:xlink="http://www.w3.org/1999/xlink" x="0px" y="0px"
	 width="150px" height="150px" viewBox="0 0 150 150" enable-background="new 0 0 150 150" xml:space="preserve">
<g>
	<path fill="#FFA18B" d="M149.443,74.222c0-41.176-33.379-74.555-74.555-74.555S0.333,33.046,0.333,74.222
		c0,24.149,11.492,45.606,29.297,59.231l0.232-1.965C31.747,118.621,39.287,112,52.48,112h47.121
		c13.194,0,20.733,6.621,22.618,19.488l0.058,0.416C138.867,118.23,149.443,97.399,149.443,74.222z"/>
	<path fill="#FFDD94" d="M99.602,112H52.48c-13.194,0-20.733,6.621-22.618,19.488l-0.232,2.09
		c12.55,9.604,28.232,15.261,45.258,15.261c17.998,0,34.506-6.409,47.389-17.028l-0.058-0.308
		C120.335,118.637,112.796,112,99.602,112z"/>
	<path fill="#FFE6D2" d="M95.915,112h-7.613l-0.009-12H62.965c0,0-0.027,9.833-0.003,11.328l-7.002,0.125
		c-0.004,0.104-0.024,0.23-0.024,0.336c0,7.375,8.955,13.365,20.002,13.365c11.046,0,20-5.724,20-13.099
		C95.938,111.95,95.919,112,95.915,112z"/>
	<path fill="#3C3533" d="M117.423,57.568c-2.69-16.172-12.099-31.266-27.024-31.266c-0.766,0-1.517,0.059-2.264,0.133
		c-0.652-0.081-1.31-0.133-1.981-0.133c-3.872,0-7.427,1.356-10.219,3.617c-2.794-2.261-6.347-3.617-10.221-3.617
		c-0.672,0-1.331,0.052-1.981,0.133c-0.749-0.074-1.5-0.133-2.264-0.133c-14.926,0-24.334,15.094-27.027,31.266
		c-1.414,8.491-9.961,13.578-9.961,21.353c0,9.804,6.06,15.863,15.863,15.863c5.778,0,10.895-2.772,14.136-7.046
		c2.233,0.691,4.568,1.093,6.989,1.093c5.327,0,10.28-1.808,14.466-4.885c4.186,3.077,9.137,4.885,14.464,4.885
		c2.422,0,4.756-0.401,6.989-1.093c3.241,4.273,8.358,7.046,14.136,7.046c9.802,0,15.865-6.06,15.865-15.863
		C127.389,71.146,118.837,66.06,117.423,57.568z"/>
	<ellipse fill="#FFD9B6" cx="74.992" cy="71.179" rx="5.452" ry="40.322"/>
	<path fill="#FFE6D2" d="M39.237,67.141c0,0-0.496,8.265-0.496,10.209C38.741,97.387,63,111.748,75,111.748V46.72V30.856
		C54,30.856,39.237,47.101,39.237,67.141z"/>
	<path fill="#FFD9B6" d="M110.625,67.141c0,0,0.565,8.265,0.565,10.209c0,20.037-25.19,34.398-36.19,34.398V46.72V30.856
		C96,30.856,110.625,47.101,110.625,67.141z"/>
	<polygon fill="#FFD2A9" points="74.76,55.518 69.54,67.141 74.76,78.763 74.992,78.763 74.992,55.518 	"/>
	<path opacity="0.8" fill="#3C3533" d="M74.992,86.574c-2.842,0-5.143-2.301-5.143-5.143h-3.337c0,4.683,3.797,8.482,8.48,8.482
		c4.683,0,8.478-3.8,8.478-8.482h-3.335C80.135,84.273,77.83,86.574,74.992,86.574z"/>
	<path fill="#FFD2A9" d="M64.861,55.518c0,1.691-1.373,3.062-3.063,3.062H50.96c-1.693,0-3.062-1.371-3.062-3.062l0,0
		c0-1.692,1.369-3.063,3.062-3.063h10.838C63.488,52.455,64.861,53.826,64.861,55.518L64.861,55.518z"/>
	<path fill="#F9C59B" d="M100.434,55.518c0,1.691-1.371,3.062-3.062,3.062H86.533c-1.691,0-3.063-1.371-3.063-3.062l0,0
		c0-1.692,1.372-3.063,3.063-3.063h10.838C99.062,52.455,100.434,53.826,100.434,55.518L100.434,55.518z"/>
	<polygon fill="#FFE6D2" points="80.444,67.141 75.224,55.518 74.992,55.518 74.992,78.763 75.224,78.763 	"/>
	<path opacity="0.8" fill="#3C3533" d="M61.209,66.515c0,1.951-1.583,3.534-3.534,3.534l0,0c-1.953,0-3.534-1.583-3.534-3.534l0,0
		c0-1.952,1.582-3.535,3.534-3.535l0,0C59.626,62.98,61.209,64.563,61.209,66.515L61.209,66.515z"/>
	<path opacity="0.8" fill="#3C3533" d="M95.843,66.515c0,1.951-1.583,3.534-3.534,3.534l0,0c-1.952,0-3.534-1.583-3.534-3.534l0,0
		c0-1.952,1.582-3.535,3.534-3.535l0,0C94.26,62.98,95.843,64.563,95.843,66.515L95.843,66.515z"/>
	<path fill="#FFA18B" d="M111.018,83.004c0-0.751-0.106-1.483-0.106-2.224C110.911,80.78,111.018,83.753,111.018,83.004z"/>
	<path fill="#3C3533" d="M94.322,52.499c9.527,7.488,19.344,11.861,25.462,11.865c-1.261-2.075-2.31-4.285-2.728-6.796
		c-1.511-9.074-5.136-17.803-10.661-23.723c-3.755-2.805-7.516-5.121-11.05-6.869c-1.686-0.44-3.456-0.674-5.315-0.674
		c-0.764,0-1.515,0.059-2.264,0.133c-0.65-0.081-1.308-0.133-1.98-0.133c-3.446,0-6.621,1.101-9.252,2.931
		C77.219,35.184,84.056,44.432,94.322,52.499z"/>
</g>
</svg>
