<?xml version="1.0" encoding="utf-8"?>
<!-- Generator: Adobe Illustrator 16.0.0, SVG Export Plug-In . SVG Version: 6.00 Build 0)  -->
<!DOCTYPE svg PUBLIC "-//W3C//DTD SVG 1.1//EN" "http://www.w3.org/Graphics/SVG/1.1/DTD/svg11.dtd">
<svg version="1.1" id="Layer_1" xmlns="http://www.w3.org/2000/svg" xmlns:xlink="http://www.w3.org/1999/xlink" x="0px" y="0px"
	 width="300px" height="300px" viewBox="0 0 300 300" enable-background="new 0 0 300 300" xml:space="preserve">
<path fill="#FFFFFF" stroke="#000000" stroke-width="5" stroke-miterlimit="10" d="M150.252,53.221
	c-68.564,0-124.148,44.029-124.148,98.338c0,58.117,67.004,81.655,114.596,87.549c6.422,0.799,12.881,1.037,19.311,0.174
	c3.752-0.496,14.877-1.425,17.463-4.329c6.059-6.821,4.328-18.773-2.005-24.688c-6.301-5.894-21.187-7.31-20.702-18.116
	c0.965-21.944,26.717,1.969,62.832,3.844c26.539,1.385,48.787-14.654,54.58-34.312c0.471,0.303,2.23-6.389,2.23-10.121
	C274.408,97.25,218.82,53.221,150.252,53.221z"/>
<g>
	<path d="M254.64,244.856c-0.951,0-1.858-0.547-2.276-1.465l-14.662-32.188l-20.604,17.114c-0.458,0.381-1.025,0.577-1.598,0.577
		c-0.36,0-0.724-0.078-1.062-0.237c-0.877-0.411-1.438-1.293-1.438-2.263v-83.633c0-0.994,0.59-1.895,1.501-2.292
		c0.321-0.14,0.661-0.208,0.998-0.208c0.62,0,1.231,0.23,1.703,0.669l61.284,56.969c0.716,0.666,0.979,1.688,0.671,2.616
		c-0.307,0.929-1.128,1.593-2.1,1.7l-22.055,2.427l14.196,31.627c0.277,0.617,0.293,1.319,0.042,1.948
		c-0.25,0.629-0.744,1.129-1.369,1.387l-12.28,5.062C255.28,244.795,254.957,244.856,254.64,244.856z"/>
	<path fill="#FFFFFF" d="M215,142.762l61.534,56.969l-25.344,2.803l15.666,34.76l-12.249,5.062l-16.253-35.166L215,226.395V143
		 M215.499,137.762c-0.675,0-1.604,0.137-2.246,0.416c-1.823,0.795-3.253,2.595-3.253,4.584v83.633c0,1.938,1.371,3.702,3.126,4.526
		c0.677,0.318,1.527,0.474,2.248,0.474c1.146,0,2.343-0.394,3.259-1.154l18.118-15.024l13.321,29.212
		c0.837,1.836,2.657,2.929,4.561,2.929c0.636,0,1.285-0.122,1.908-0.378l12.281-5.062c1.251-0.516,2.24-1.517,2.741-2.773
		c0.5-1.257,0.47-2.663-0.083-3.897l-12.791-28.493l18.642-2.052c1.944-0.214,3.585-1.542,4.2-3.398
		c0.614-1.856,0.09-3.901-1.343-5.233L218.904,139.1C217.961,138.223,216.738,137.762,215.499,137.762L215.499,137.762z"/>
</g>
<path opacity="0.8" d="M77.424,134.695c-2.699-4.756-8.365-6.703-17.134-1.62c-9.122,5.288-17.759,23.142-5.076,29.109
	C69.984,169.135,84.684,147.492,77.424,134.695z"/>
<path opacity="0.3" d="M108.749,87.001c-10.312-2.506-24.3,3.897-26.65,13.814c-1.978,8.342,2.948,17.182,10.776,20.569
	c11.433,4.947,21.413-1.56,25.162-12.472c1.59-4.626,2.432-10.281,0.078-14.819C116.103,90.224,112.695,87.961,108.749,87.001z"/>
<path opacity="0.7" d="M155.387,78.435c-8.503,1.58-16.49,7.048-17.045,14.723c-1.147,15.888,27.895,26.232,35.307,11.006
	c2.86-5.876,4.284-14.571,0.312-20.269C170.242,78.563,162.628,77.09,155.387,78.435z"/>
<path d="M224.604,103.021c-0.381-4.588-1.034-8.777-5.09-11.467c-13.716-9.093-33.04,8.134-23.567,22.347
	c3.614,5.422,11.812,8.31,18.066,7.165C223.596,119.312,225.322,111.652,224.604,103.021z"/>
</svg>
